<?xml version="1.0" encoding="utf-8"?>
<!-- Generator: Adobe Illustrator 26.0.3, SVG Export Plug-In . SVG Version: 6.00 Build 0)  -->
<svg version="1.0" id="레이어_1" xmlns="http://www.w3.org/2000/svg" xmlns:xlink="http://www.w3.org/1999/xlink" x="0px"
	 y="0px" width="309.4px" height="88.8px" viewBox="0 0 309.4 88.8" style="enable-background:new 0 0 309.4 88.8;"
	 xml:space="preserve">
<style type="text/css">
	.crush0{fill:#0083B7;}
	.crush1{fill:#00A7E1;}
	.crush2{fill:#FFFFFF;}
	.crush3{clip-path:url(#SVGID_00000105422863075311691840000011215580592731912350_);}
</style>
<g>
	<path class="crush0" d="M61.1,88.8c-14,0-25.5-10.6-27-24.1H18.6C8.4,64.6,0,56.3,0,46V18.6C0,8.4,8.4,0,18.6,0H40v3
		c0,11.7,9.5,21.1,21.1,21.1S82.3,14.7,82.3,3V0h227.1v64.6H88.1C86.6,78.2,75.1,88.8,61.1,88.8z"/>
	<path class="crush1" d="M238.8,3h-29.3H107.3H85.3c0,13.3-10.8,24.1-24.1,24.1C47.8,27.1,37,16.3,37,3h-4.7H18.6C10,3,3,10,3,18.6V46
		c0,8.6,7,15.6,15.6,15.6H37C37,75,47.8,85.8,61.1,85.8c13.3,0,24.1-10.8,24.1-24.1h22.1h183.4h15.6V46V18.6V3h-15.6H238.8z"/>
	<g>
		<path class="crush2" d="M103.3,27.9c-0.2,2.8-1.7,4.4-4.7,4.4c-1.6,0-2.4,0.1-3.9-0.8c-1.4-0.9-1.8-2.6-1.8-4.1
			c0-3.4,2.4-5.1,5.6-4.9C101.7,22.7,103.5,24.5,103.3,27.9z M109.9,40.3c0.2,0.6,0,1-0.6,1.2c-0.4,0.2-0.8,0.2-1.1,0.2H97.6
			c-0.6,0-1.3,0-2,0c-0.8,0-1.1-0.6-1.2-1.3l-0.1-1.5c0-0.3,0-0.9,0.3-1.2c0.4-0.4,1-0.5,1.7-0.5H97c0.1,0,0.2,0,0.3,0h9.9v-0.8
			H97.1c-0.2,0-0.3,0-0.5,0H96c-0.3,0-0.6,0-0.8,0c-0.3-0.1-0.5-0.1-0.7-0.3c-0.2-0.3-0.3-0.6-0.1-1c0.2-0.5,0.9-0.6,1.2-0.6
			c0.2,0,0.5,0,0.7,0h0.4c0.2,0,0.3,0,0.4,0h10.3c1.6,0,2.4,0.4,2.4,1.5v1.6c0,0.4-0.2,0.9-0.7,1.2c-0.4,0.2-0.8,0.2-1.2,0.2H97.2
			v0.9h11.6C109.3,39.6,109.7,39.8,109.9,40.3z M100.6,28c0.1-1.1-0.4-2.2-1.4-2.5c-1.3-0.4-3.3,0-3.6,1.7c-0.2,1.2,0.3,2.5,2.1,2.7
			c1.2,0.1,2.5-0.2,2.8-1.6L100.6,28z M109.6,32.4c-0.1,0.2-0.2,0.3-0.4,0.4c-0.2,0.2-0.5,0.3-0.8,0.3c-0.2,0-0.5-0.1-0.7-0.2
			c-0.4-0.3-0.7-0.9-0.7-1.3v-2.5c-0.5,0-1.1-0.1-1.5-0.1c-0.9-0.1-1.6-0.5-1.4-1.5c0.1-0.7,0.4-1,1-1.1c0.2,0,0.4,0,0.7,0
			c0.4,0,0.8,0,1.2,0v-1.7c0-0.1-0.1-1.1,0.1-1.4c0.1-0.3,0.5-0.5,0.9-0.6c0.5-0.1,1,0.1,1.3,0.3c0.2,0.2,0.4,0.5,0.4,0.7
			c0.1,0.3,0.1,1,0.1,1.4v1.3c0,1.9,0.1,3.2,0,5C109.8,31.7,109.8,32.1,109.6,32.4z"/>
		<path class="crush2" d="M127,31.5c1.1,0,2.3-0.1,2.3,1.3c0,0.4-0.2,0.6-0.5,0.9c-0.5,0.4-1.3,0.4-1.9,0.4c-0.1,0-0.3,0-0.4,0h-13.3
			c-0.4,0-1.4-0.1-1.4-1.2c0-0.9,0.7-1.4,1.4-1.4H127z M112.7,26.4c0-3.1,3.4-3.8,7.9-3.8c4.5,0,7.9,0.4,7.9,3.8
			c0,3.4-3.4,3.8-7.9,3.8C116.1,30.2,112.7,29.8,112.7,26.4z M113.4,41.3c-0.3-0.2-0.4-0.7-0.4-1.1c0-0.6-0.1-1.1-0.1-1.7
			c0-0.8,0-1.4,0.1-2.2c0.1-0.5,0.3-0.8,0.7-1c0.4-0.2,0.9-0.3,1.3-0.3h10.7c0.6,0,1.2,0,1.8,0.3c0.6,0.3,0.8,0.7,0.8,1.3
			c0,1.1,0.1,2.8-0.2,3.9c-0.1,0.3-0.2,0.6-0.5,0.7c-0.3,0.1-0.7,0.1-1,0.1l-11.9,0C114.4,41.6,113.9,41.6,113.4,41.3
			C113.5,41.4,113.5,41.4,113.4,41.3z M115.8,39.1c0.1,0.1,0.7,0,0.7,0h7.1c0,0,1.1,0.1,1.7,0c0.3,0,0.3-0.2,0.3-0.5
			c0-0.3,0.1-0.6-0.1-0.9c-0.2-0.3-0.7-0.2-1-0.2h-6.2c-0.7,0-1.3,0-2,0c-0.3,0-0.4,0-0.4,0.2c0,0.2,0,0.4,0,0.6c0,0,0,0.1,0,0.2
			C115.7,38.9,115.7,39,115.8,39.1z M115.9,26.4c0,1,1.8,1.3,4.8,1.3c2.3,0,4.8,0.1,4.8-1.3c0-1.2-2.5-1.2-4.8-1.2
			C118.4,25.2,115.9,25.2,115.9,26.4z"/>
		<path class="crush2" d="M135.9,26.4v1.3v7.8c0,0.1,0.1,1.9,0,2.9c0,0.6-0.1,1.3-0.8,1.7c-0.3,0.1-0.5,0.2-0.7,0.2
			c-0.4,0-0.8-0.2-1-0.5c-0.2-0.5-0.3-1-0.3-1.6v-1c0-0.4,0-0.7,0-1.1v-7.6c0-0.5,0-1,0-1.5c0-0.2,0-0.5-0.2-0.6s-0.3,0-0.5,0
			c-0.2,0-0.7,0-1,0c-0.3,0-0.7,0-1-0.2c-0.4-0.3-0.5-0.6-0.5-1.1c0-0.3,0-0.5,0.2-0.8c0-0.1,0.1-0.3,0.3-0.4
			c0.1-0.1,0.4-0.3,0.7-0.3c0.6-0.1,0.3-0.1,0.9-0.1h0.1c0.2,0,1.6,0,1.8,0h0.1c0.2,0,0.5,0,0.6,0h2.9c0.1,0,0.3,0,0.4,0
			c0.4,0,0.7,0.1,1.1,0.2c0.2,0.1,0.5,0.3,0.6,0.5c0.3,0.4,0.2,0.8,0.3,1.3c0.1,0.8,0,1.9,0,2.7v7.4c0,0.1,0,1.9,0,2.9
			c0,0.6-0.2,1.3-0.9,1.7c-0.3,0.1-0.4,0.2-0.6,0.2c-0.3,0-0.8-0.2-1-0.5c-0.2-0.5-0.3-1-0.3-1.6c0-0.4,0-0.7,0-1v-8.7
			c0-0.5,0-1-0.1-1.5c0-0.2-0.1-0.7-0.7-0.6C136.2,26.4,136.1,26.5,135.9,26.4z M148.1,27.1v11.2c0,0.1,0,0.2,0,0.4
			c0,0.7,0,1.5-0.4,2.1c-0.6,0.8-1.6,0.6-2-0.3c-0.3-0.6-0.3-1.3-0.3-1.9v-5.7H144v5.4c0,0.1,0,0.3,0,0.4c0,0.7,0,1.6-0.3,2
			c-0.2,0.2-0.5,0.4-0.8,0.4c-0.4,0-0.8-0.1-1-0.4c-0.5-0.5-0.5-1.4-0.5-2.1V25.2c0-0.8-0.1-2.1,1-2.4c0.3-0.1,0.8-0.1,1,0.2
			c0.7,0.7,0.6,2.7,0.6,4v3.1h1.4v-4.7c0-0.9,0-2.4,1.3-2.6c0.3,0,0.6,0.1,0.8,0.3c0.7,0.7,0.7,2.6,0.6,3.7
			C148.1,26.9,148.1,27,148.1,27.1z"/>
		<path class="crush2" d="M156.2,36.3v-7.4c0-0.5,0-1,0-1.5c0-0.2,0-0.5-0.2-0.6c-0.2-0.1-0.4,0-0.6-0.1c-0.2,0-0.4,0-0.6,0h-1.1
			c-0.5,0-1.1,0-1.6,0c-0.2,0-0.4,0-0.7,0c-0.3,0-0.7,0-1-0.2c-0.4-0.3-0.6-0.8-0.6-1.3c0-0.3,0-0.6,0.2-0.9
			c0.1-0.2,0.2-0.3,0.3-0.4c0.2-0.2,0.5-0.3,0.7-0.3c0.7-0.2,1.4-0.1,2.1-0.1h4.1c0.4,0,0.9,0.1,1.3,0.2c0.2,0.1,0.5,0.3,0.7,0.5
			c0.3,0.4,0.3,0.9,0.3,1.4c0.1,0.9,0,1.7,0,2.6v7.6c0,0.1,0,2,0,3c0,0.6-0.2,1.4-1,1.7c-0.3,0.1-0.6,0.2-0.8,0.2
			c-0.4,0-0.9-0.2-1-0.5c-0.2-0.5-0.4-1-0.4-1.7v-1C156.2,37.1,156.2,36.7,156.2,36.3z M167.1,40.8c0,0.1-0.1,0.2-0.1,0.3
			c-0.1,0.2-0.2,0.4-0.4,0.5c-0.3,0.2-0.8,0.3-1.2,0.2c-0.2,0-0.4-0.1-0.6-0.3c-0.6-0.5-0.5-1.7-0.5-1.8V25.4c0-0.7,0-1.9,0.4-2.3
			c0.3-0.3,0.7-0.4,1.1-0.4c0.5,0,1,0.3,1.2,0.8c0.3,0.7,0.3,1.4,0.3,2.1v0.1c0.1,2.4,0,5,0,7.3v5.9c0,0.3,0,0.6,0,0.8
			C167.2,40.1,167.2,40.4,167.1,40.8z"/>
	</g>
	<g id="그룹_71_00000141419625281743464910000003070110016509944740_" transform="translate(1.802 126)">
		<g>
			<defs>
				<rect id="SVGID_1_" x="245.1" y="-117.5" width="50.3" height="47.6"/>
			</defs>
			
				<g id="그룹_8_00000055694074764261357810000018084981387410404238_" transform="translate(0 -1)" style="clip-path:url(#SVGID_00000026855646024655861630000015651893001181796778_);">
				<path id="패스_21_00000003823806050556626290000013504428180379775875_" class="crush2" d="M274.9-112.1l-10.2,3.5
					c-1.3,0.4-1.9,1.8-1.5,3l3.3,9.5c0.4,1.2,1.8,1.9,3.1,1.4l10.2-3.5c1.3-0.4,1.9-1.8,1.5-3l-3.3-9.5
					C277.5-111.9,276.1-112.5,274.9-112.1 M270.7-107.9c0,0-0.5,0.3-1.4,0.7c-0.5,0.2-1,0.4-1.5,0.7c-0.3,0.1-0.6,0.2-0.9,0.3
					l-0.2,0.1c-0.1,0-0.1,0-0.2,0.1c0,0,0,0-0.1,0c0,0,0,0,0,0c0,0.1,0,0.2,0,0.3l0.1,0.5c0.1,0.3,0.2,0.6,0.3,0.9
					c0.1,0.5,0.3,1.1,0.4,1.6c0.2,0.9,0.3,1.5,0.3,1.5l0,0.2l-0.1-0.2c0,0-0.3-0.5-0.7-1.3c-0.2-0.5-0.5-1-0.7-1.5
					c-0.1-0.3-0.2-0.6-0.4-0.9l-0.1-0.3c0-0.1,0-0.1-0.1-0.2c0-0.1-0.1-0.2-0.1-0.3c0-0.1,0-0.3,0-0.4c0-0.2,0.1-0.3,0.2-0.5
					c0.1-0.1,0.2-0.2,0.4-0.3c0.1,0,0.2-0.1,0.2-0.1l0.1,0l0.3-0.1c0.3-0.1,0.6-0.2,0.9-0.3c0.5-0.1,1.1-0.3,1.6-0.4
					C270.1-107.8,270.7-107.9,270.7-107.9l0.2-0.1L270.7-107.9z"/>
				<path id="패스_22_00000112618256202430957510000014103473458679975043_" class="crush2" d="M270-90l-9.7-4.7
					c-1.2-0.6-2.6-0.1-3.2,1.1l-4.4,9.1c-0.6,1.2-0.1,2.6,1.1,3.2l9.7,4.7c1.2,0.6,2.6,0.1,3.2-1.1l4.4-9.1
					C271.7-88,271.2-89.4,270-90 M264-89.9c0,0-0.6-0.2-1.5-0.5c-0.5-0.2-1-0.4-1.5-0.6c-0.3-0.1-0.6-0.3-0.9-0.4l-0.2-0.1
					c-0.1,0-0.1,0-0.2-0.1c0,0,0,0-0.1,0c0,0,0,0,0,0c-0.1,0.1-0.1,0.2-0.2,0.2l-0.2,0.4c-0.1,0.3-0.3,0.6-0.5,0.8
					c-0.3,0.5-0.6,0.9-0.9,1.4c-0.5,0.8-0.9,1.2-0.9,1.2l-0.1,0.1l0.1-0.2c0,0,0.2-0.6,0.5-1.4c0.2-0.5,0.4-1,0.6-1.5
					c0.1-0.3,0.2-0.6,0.4-0.9l0.1-0.3c0-0.1,0.1-0.1,0.1-0.2c0-0.1,0.1-0.2,0.2-0.3c0.1-0.1,0.2-0.2,0.3-0.3
					c0.1-0.1,0.3-0.2,0.5-0.2c0.2,0,0.3,0,0.5,0c0.1,0,0.2,0.1,0.2,0.1l0.1,0l0.2,0.1c0.3,0.2,0.6,0.3,0.9,0.5
					c0.5,0.3,1,0.6,1.4,0.9C263.6-90.3,264.1-90,264-89.9l0.2,0.1L264-89.9z"/>
				<path id="패스_23_00000144317869151809689170000003278587944150358148_" class="crush2" d="M278-93.7l-5.4,9.4
					c-0.7,1.1-0.3,2.6,0.8,3.3l8.7,5c1.2,0.6,2.6,0.2,3.3-0.9l5.4-9.4c0.7-1.1,0.3-2.6-0.8-3.3l-8.7-5
					C280.1-95.2,278.7-94.8,278-93.7 M277.7-87.7c0,0-0.2,0.6-0.6,1.4c-0.2,0.5-0.5,1-0.7,1.5c-0.2,0.3-0.3,0.6-0.5,0.9l-0.1,0.2
					c0,0.1-0.1,0.1-0.1,0.2c0,0,0,0,0,0.1c0,0,0,0,0,0c0.1,0.1,0.1,0.2,0.2,0.2l0.4,0.3c0.3,0.2,0.5,0.3,0.8,0.5
					c0.5,0.3,0.9,0.6,1.3,0.9c0.7,0.6,1.2,0.9,1.2,0.9l0.1,0.1l-0.2-0.1c0,0-0.6-0.2-1.4-0.6c-0.5-0.2-1-0.4-1.5-0.7
					c-0.3-0.1-0.6-0.3-0.9-0.4l-0.3-0.1c-0.1,0-0.1-0.1-0.2-0.1c-0.1-0.1-0.2-0.1-0.3-0.2c-0.1-0.1-0.2-0.2-0.3-0.3
					c-0.1-0.1-0.1-0.3-0.2-0.5c0-0.2,0-0.3,0.1-0.5c0-0.1,0.1-0.2,0.1-0.2l0-0.1l0.1-0.2c0.2-0.3,0.4-0.5,0.6-0.8
					c0.3-0.5,0.6-0.9,1-1.3C277.2-87.3,277.6-87.8,277.7-87.7l0.1-0.2L277.7-87.7z"/>
			</g>
		</g>
	</g>
</g>
</svg>
