<?xml version="1.0" encoding="utf-8"?>
<!-- Generator: Adobe Illustrator 26.0.3, SVG Export Plug-In . SVG Version: 6.00 Build 0)  -->
<svg version="1.0" id="레이어_1" xmlns="http://www.w3.org/2000/svg" xmlns:xlink="http://www.w3.org/1999/xlink" x="0px"
	 y="0px" width="309.4px" height="64.6px" viewBox="0 0 309.4 64.6" style="enable-background:new 0 0 309.4 64.6;"
	 xml:space="preserve">
<style type="text/css">
	.end0{fill:#A80000;}
	.end1{fill:#DF342B;}
	.end2{fill:#FFFFFF;}
	.end3{clip-path:url(#SVGID_00000042716828445076284930000013764892731214212282_);}
	.end4{fill:none;stroke:#FFFFFF;stroke-width:3;stroke-linecap:round;stroke-linejoin:round;}
</style>
<g>
	<path class="end0" d="M18.6,64.6C8.4,64.6,0,56.3,0,46V18.6C0,8.4,8.4,0,18.6,0H40v3c0,11.7,9.5,21.1,21.1,21.1S82.3,14.7,82.3,3V0
		h227.1v64.6H18.6z"/>
	<path class="end1" d="M290.8,3H107.3l0,0H85.3c0,13.3-10.8,24.1-24.1,24.1C47.8,27.1,37,16.3,37,3H18.6l0,0C10,3,3,10,3,18.6V46
		c0,8.6,7,15.6,15.6,15.6h88.7h183.4h15.6V46V18.6V3H290.8L290.8,3z"/>
	<g>
		<path class="end2" d="M96.3,30.4l11.7,0c0.6,0,1.3,0,1.9,0.2c0.4,0.2,0.7,0.6,0.7,1c0,0.4-0.2,0.7-0.5,1c-0.6,0.5-1.6,0.4-2.3,0.4
			l-13,0c0,0-1.1,0-1.6-0.5c-0.2-0.2-0.3-0.5-0.3-0.8c0-0.3,0.1-0.6,0.3-0.8c0.4-0.4,1-0.5,1.6-0.5C95.3,30.4,96.3,30.4,96.3,30.4z
			 M94.9,25.9c-0.4,0-0.8,0-1.1-0.2c-0.4-0.3-0.6-0.6-0.6-1.1c0-0.3,0-0.1,0.2-0.4c0.1-0.1,0.2-0.3,0.3-0.4c0.2-0.1,0.5-0.3,0.7-0.3
			c0.7-0.1,1.3-0.1,2.1-0.1h1.3c0.2,0,0.3,0,0.5,0c0.4,0,0.9,0.1,1.3,0.2c0.2,0.1,0.4,0.3,0.5,0.5c0.3,0.4,0.3,0.4,0.3,1
			c0.1,0.8,0.1,1.7,0.1,2.7c0,1-0.5,1.8-1.7,1.8c-1,0-1.4-0.6-1.4-1.4v-1.3c0-0.5,0-0.8-0.8-0.8C96.5,25.8,95.3,25.8,94.9,25.9z
			 M109.7,41c-0.1,1-1.4,0.9-2.2,0.9h-10c-0.7,0-1.2,0-2,0c-0.7,0-1-0.7-1.1-1.3c-0.2-0.8-0.1-1.6-0.1-2.4c0-0.6-0.1-1.2,0-1.7
			c0-0.5,0-1.1,0.4-1.5c0.4-0.5,1-0.7,1.7-0.7h0.5c0.1,0,0.2,0,0.4,0h4.6c1.6,0,3.2,0,4.9,0c0.8,0,2.4-0.2,2.8,0.6
			c0.3,0.5,0,1.2-0.5,1.3c-0.9,0.1-1.7,0.1-2.5,0.1h-8.4c-0.3,0-0.4,0-0.7,0c-0.3,0-0.3,0-0.3,0.3v0.6l11,0.1c0.3,0,0.8,0,1.1,0.2
			c0.3,0.3,0.4,1.1,0.1,1.4c-0.2,0.2-0.7,0.3-1,0.3L97.2,39v0.8l11.2,0C109,39.9,109.8,40.1,109.7,41z M104.9,25.8
			c-0.4,0-1.6,0-2.1,0c-0.3,0-1,0-1.3-0.2c-0.4-0.3-0.3-0.6-0.3-1.1c0-0.3,0.1-0.4,0.2-0.7c0.2-0.2,0.6-0.5,1-0.5l3.8,0
			c0.4,0,0.9,0,1.3,0.2c0.2,0.1,0.5,0.3,0.7,0.5c0.3,0.4,0.3,0.2,0.3,0.7c0.1,0.8,0,2.6,0,3.4c0,1-0.7,1.5-1.7,1.5
			c-1,0-1.4-0.7-1.4-1.7c0-0.4,0-1.2,0-1.5C105.4,26.2,105.6,25.8,104.9,25.8z"/>
		<path class="end2" d="M115.6,40.3c-0.3,0-0.6-0.1-1-0.1c-0.2,0-0.5-0.1-0.7-0.1c-0.3-0.1-0.5-0.2-0.7-0.4c-0.2-0.2-0.3-0.3-0.4-0.4
			c-0.1-0.1-0.1-0.3-0.2-0.5c-0.1-0.5-0.2-1-0.1-1.6c0-0.6,0-1.1,0-1.6v-2c0-0.7,0-1.4,0-1.9c0-0.6,0-1.2,0-1.8c0-0.7,0-1.3,0-1.9
			c0-0.6,0-1.2,0-1.7c0-0.5,0-0.8,0-1c0-0.3,0.1-0.7,0.2-1c0.1-0.4,0.4-0.6,0.8-0.8c0.1,0,0.3-0.1,0.5-0.1c0.2,0,0.4,0,0.6,0
			c0.2,0,0.4,0.1,0.6,0.2c0.2,0.1,0.3,0.3,0.3,0.5c0.1,0.2,0.2,0.5,0.2,0.7c0,0.3,0,0.5,0,0.7c0,0.2,0,0.4,0,0.8c0,0.4,0,0.6,0,0.8
			c0,0.4,0,0.7,0,1.2c0,0.5,0,1.1,0,1.6c0,0.6,0,1.2,0,1.8c0,0.6,0,1.2,0,1.8c0,0.6,0,1.1,0,1.6c0,0.5,0,0.9,0,1.3
			c0,0.1,0,0.2,0,0.3c0,0.1,0.1,0.2,0.1,0.3c0.1,0.1,0.2,0.2,0.3,0.2c0.5,0,1,0,1.5,0.1c0.2,0,0.4,0,0.5,0c1.3,0,2.9-0.3,2.9,1.4
			c0,0.1,0,0.1,0,0.2c-0.1,1-1.1,1.1-2,1.2c-0.6,0-1.2,0.1-1.7,0.1c-0.3,0-0.5,0-0.7,0c-0.2,0-0.3,0-0.4,0
			C116.1,40.4,115.8,40.3,115.6,40.3z M129.3,39c0,0.4,0,0.9-0.1,1.3c0,0.4-0.2,0.8-0.6,1c-0.3,0.1-0.6,0.2-0.8,0.2
			c-0.3,0-0.5-0.1-0.7-0.3c-0.2-0.2-0.3-0.4-0.4-0.7c-0.1-0.3-0.2-0.6-0.2-0.9c0-0.3,0-0.5,0-0.7v-5.9h-1.8v6c0,0.3,0,0.7,0,1.1
			c0,0.4-0.2,0.7-0.3,0.9c-0.2,0.3-0.5,0.4-0.9,0.4c-0.2,0-0.3-0.1-0.5-0.1c-0.1-0.1-0.3-0.2-0.4-0.3c-0.3-0.3-0.4-0.6-0.5-1
			c-0.1-0.4-0.1-0.8-0.1-1.1V24.4c0-0.5,0.1-0.9,0.2-1.2c0.2-0.3,0.5-0.6,1-0.6c0.4,0,0.7,0.1,0.9,0.3c0.2,0.2,0.3,0.5,0.4,0.8
			c0.1,0.4,0.1,0.7,0.1,1c0,0.3,0,0.6,0,0.8v4.7h1.8v-4.9c0-0.2,0-0.5,0-0.8c0-0.3,0-0.6,0.1-0.9c0.1-0.3,0.2-0.5,0.3-0.7
			c0.2-0.2,0.4-0.3,0.8-0.3c0.1,0,0.3,0,0.5,0c0.2,0.1,0.3,0.1,0.4,0.3c0.2,0.2,0.3,0.4,0.4,0.7c0.1,0.3,0.1,0.6,0.2,1
			c0,0.3,0.1,0.7,0.1,1c0,0.3,0,0.6,0,0.9V39z"/>
		<path class="end2" d="M137.2,36.3v-7.4c0-0.5,0-1,0-1.5c0-0.2,0-0.5-0.2-0.6c-0.2-0.1-0.4,0-0.6-0.1c-0.2,0-0.4,0-0.6,0h-1.1
			c-0.5,0-1.1,0-1.6,0c-0.2,0-0.4,0-0.7,0c-0.3,0-0.7,0-1-0.2c-0.4-0.3-0.6-0.8-0.6-1.3c0-0.3,0-0.6,0.2-0.9
			c0.1-0.2,0.2-0.3,0.3-0.4c0.2-0.2,0.5-0.3,0.7-0.3c0.7-0.2,1.4-0.1,2.1-0.1h4.1c0.4,0,0.9,0.1,1.3,0.2c0.2,0.1,0.5,0.3,0.7,0.5
			c0.3,0.4,0.3,0.9,0.3,1.4c0.1,0.9,0,1.7,0,2.6v7.6c0,0.1,0,2,0,3c0,0.6-0.2,1.4-1,1.7c-0.3,0.1-0.6,0.2-0.8,0.2
			c-0.4,0-0.9-0.2-1-0.5c-0.2-0.5-0.4-1-0.4-1.7v-1C137.2,37.1,137.2,36.7,137.2,36.3z M148.1,40.8c0,0.1-0.1,0.2-0.1,0.3
			c-0.1,0.2-0.2,0.4-0.4,0.5c-0.3,0.2-0.8,0.3-1.2,0.2c-0.2,0-0.4-0.1-0.6-0.3c-0.6-0.5-0.5-1.7-0.5-1.8V25.4c0-0.7,0-1.9,0.4-2.3
			c0.3-0.3,0.7-0.4,1.1-0.4c0.5,0,1,0.3,1.2,0.8c0.3,0.7,0.3,1.4,0.3,2.1v0.1c0.1,2.4,0,5,0,7.3v5.9c0,0.3,0,0.6,0,0.8
			C148.2,40.1,148.2,40.4,148.1,40.8z"/>
	</g>
	<g id="그룹_83_00000041288865120224171820000013549169710310062468_" transform="translate(189 132)">
		<g>
			<defs>
				<rect id="SVGID_1_" x="57.2" y="-125.5" width="51.6" height="51.6"/>
			</defs>						
				<g id="그룹_82_00000064314912046663422110000008927761381738361498_" transform="translate(-9 -9)" style="clip-path:url(#SVGID_00000173124384553442808240000014605632453059697300_);">
				<path id="패스_69_00000083056447251376163860000001879598333112842673_" class="end4" d="M92.3-104.3c2.5,0,4.9,0.7,7.1,1.9"/>
				<path id="패스_70_00000000906057859142833580000011213491057383470502_" class="end4" d="M105.7-94.1c2,7.4-2.3,15-9.7,17.1
					c-7.4,2-15-2.3-17.1-9.7c-2-7.4,2.3-15,9.7-17.1c1.2-0.3,2.4-0.5,3.7-0.5"/>
				<path id="패스_71_00000129175272723598376470000001467724719691339448_" class="end4" d="M105.3-100.2L92.5-87.4l-5.6-5.6"/>
			</g>
		</g>
	</g>
</g>
</svg>
