<?xml version="1.0" encoding="utf-8"?>
<!-- Generator: Adobe Illustrator 26.0.3, SVG Export Plug-In . SVG Version: 6.00 Build 0)  -->
<svg version="1.0" id="레이어_1" xmlns="http://www.w3.org/2000/svg" xmlns:xlink="http://www.w3.org/1999/xlink" x="0px"
	 y="0px" width="309.4px" height="88.8px" viewBox="0 0 309.4 88.8" style="enable-background:new 0 0 309.4 88.8;"
	 xml:space="preserve">
<style type="text/css">
	.front30{fill:#EA8B00;}
	.front31{fill:#FDB606;}
	.front32{fill:#FFFFFF;}
	.front33{clip-path:url(#SVGID_00000063627434417516074390000006214165607956589454_);}
	.front34{fill:#FFFFFF;stroke:#FFFFFF;stroke-width:1.3;stroke-miterlimit:10;}
</style>
<g>
	<path class="front30" d="M61.1,88.8c-14,0-25.5-10.6-27-24.1H18.6C8.4,64.6,0,56.3,0,46V18.6C0,8.4,8.4,0,18.6,0H40v3
		c0,11.7,9.5,21.1,21.1,21.1c11.7,0,21.1-9.5,21.1-21.1V0h227.1v64.6H88.1C86.6,78.2,75.1,88.8,61.1,88.8z"/>
	<path class="front31" d="M238.8,3h-29.3H107.3H85.3c0,13.3-10.8,24.1-24.1,24.1C47.8,27.1,37,16.3,37,3h-4.7H18.6C10,3,3,10,3,18.6V46
		c0,8.6,7,15.6,15.6,15.6H37C37,75,47.8,85.8,61.1,85.8c13.3,0,24.1-10.8,24.1-24.1h22.1h183.4h15.6V46V18.6V3h-15.6H238.8z"/>
	<g>
		<path class="front32" d="M103.8,28.4c-0.2,3.1-1.7,4.6-4.9,4.6c-1.7,0-2.6,0.1-4.1-0.8c-1.5-1-1.9-2.7-1.9-4.3c0-1.6,0.6-3.1,1.9-4.2
			c1.1-0.9,2.5-1.3,3.9-1.2c1.2,0.1,1.7,0.2,2.8,0.7C103.3,24.3,104,26,103.8,28.4z M94.3,40.9c-0.3-0.4-0.3-1.3,0.2-1.6
			c0.3-0.2,0.7-0.2,1-0.3c0.2,0,1.2,0,1.2,0l-0.1-1.7c0,0-1.1,0-1.3,0c-0.4,0-0.9-0.4-1-0.8c-0.1-0.3-0.1-0.7,0-1
			c0.2-0.6,0.7-0.7,1.3-0.8c0.3,0,0.8,0,0.8,0h10.7c0,0,1.4-0.1,2.1,0.2c0.7,0.3,1.1,1.5,0.3,2c-0.3,0.2-0.4,0.3-0.9,0.3
			c-0.4,0-1,0-1.4,0c0,0.1,0,1.7,0.1,1.7c0.3,0,0.9,0,1.2,0c0.5,0,0.9,0,1.3,0.3c0.4,0.3,0.4,1.2,0,1.6c-0.6,0.7-2.9,0.5-2.9,0.5
			H95.8C95.3,41.4,94.6,41.4,94.3,40.9z M99.6,25.7c-1.4-0.5-3.6,0-3.9,1.9c-0.2,1.3,0.4,2.8,2.3,2.9c1.3,0.1,2.7-0.3,3.1-1.8
			C101.1,27.3,100.9,26.2,99.6,25.7z M99.2,38.5c0,0,0,0.3,0,0.3c0,0.2,0.4,0.1,0.4,0.1h5.1c0,0,0.1-1.3,0-1.5
			c-0.1-0.1-0.3-0.1-0.5-0.1h-4c-0.4,0-0.4,0-0.8,0c-0.2,0-0.2,0.1-0.2,0.4L99.2,38.5z M109.5,29.8v2.1c0,0.3-0.1,0.7-0.3,1
			c-0.1,0.2-0.2,0.3-0.4,0.5c-0.2,0.2-0.6,0.2-0.9,0.2c-0.2,0-0.6,0-0.7-0.2c-0.6-0.4-0.7-1.2-0.7-1.3v-7.7c0-0.1,0-0.8,0.2-1.2
			c0.1-0.3,0.6-0.5,1-0.6c0.5-0.1,1.1,0.1,1.4,0.3c0.2,0.2,0.2,0.5,0.3,0.7c0.1,0.3,0.1,0.7,0.1,1v1.6c0,0,0,0.3,0,0.7
			c0.3,0,1.5,0,1.8,0.1c0.6,0.1,0.8,0.4,0.9,0.7c0.1,0.3,0.1,0.9-0.1,1.2c-0.4,0.6-1.2,0.6-2.1,0.6H109.5z"/>
		<path class="front32" d="M112.7,38.4c0-0.3,0.1-0.6,0.3-0.8c0.5-0.5,1.6-0.5,1.7-0.5l13,0c0.8,0,1.5-0.1,2,0.3c0.3,0.3,0.5,0.6,0.5,1
			c0,0.5-0.3,0.9-0.8,1c-0.6,0.2-1.3,0.3-2,0.4c-2.3,0.1-4.5,0-6.6,0c-2.2,0-4.8,0.1-6.2,0C113.7,39.9,112.7,39.7,112.7,38.4z
			 M127.7,25.1c1.1,1.2,1.4,3,1.3,4.5c-0.3,3.5-3.1,5.2-6.2,5.2c-2.6,0-5.9,0.3-7.7-2.2c-0.7-1-0.9-2.4-0.9-3.5
			c0-2.4,1.4-4.5,3.6-5.3c1.5-0.5,3.1-0.7,4.6-0.6C124.6,23.4,126.3,23.6,127.7,25.1z M125.8,29.4c0-1.6-1-2.7-2.4-2.8
			c-0.5,0-1-0.1-1.7-0.1c-1.8,0-3.9,0.4-4.2,2.2c-0.2,1.5,0.4,3.1,2.6,3.3c0.5,0,1,0.1,1.4,0.1c1.6,0.1,3.7-0.2,4.2-2.2
			C125.8,29.8,125.8,29.6,125.8,29.4z"/>
		<path class="front32" d="M147.4,37.3c0.5,0,1,0.2,1.4,0.5c0.2,0.2,0.3,0.5,0.3,0.8c0,0.3-0.1,0.8-0.3,1c-0.5,0.5-1.6,0.4-1.7,0.4
			h-13.1c-0.1,0-0.3,0-0.5,0c-0.7,0-1.5,0.1-2-0.4c-0.3-0.3-0.5-0.6-0.5-1c0-0.5,0.3-1,0.8-1.2c0.6-0.2,1.3-0.2,2-0.2h0.1
			c1.5,0,3,0,4.6,0l0-2.2h-2.4c-0.6,0-1.3,0-2,0c-0.7,0-1.1-0.7-1.2-1.5c0-0.6-0.1-2.8-0.1-3.2v-0.6c0-0.4,0-0.8,0.3-1.2
			c0.4-0.5,1.2-0.6,1.9-0.6c0.2,0,0.6,0,0.8,0h8.3v-2h-8.5c-0.2,0-0.3,0-0.5,0c-0.2,0-0.4,0-0.6,0c-0.3,0-0.6,0-0.8-0.1
			c-0.3-0.1-0.5-0.3-0.7-0.5c-0.2-0.4-0.3-0.7-0.2-1.1c0.2-0.6,0.9-0.8,1.2-0.9c0.2,0,0.5,0,0.7,0h0.8c1,0,3.1,0,4.4,0h4.7
			c0.5,0,1.1,0,1.6,0.2c0.7,0.2,0.9,1.1,0.9,1.8v3.1c0,0.5-0.2,1.8-0.7,2.1c-0.4,0.3-0.8,0.3-1.2,0.2h-9.2v1.9h9.2
			c0.3,0,0.5,0,0.8,0c0.5,0,0.9,0.2,1,0.8c0.2,0.6,0,1.2-0.6,1.5c-0.4,0.2-0.8,0.2-1.1,0.2h-4l0,2.2c1.5,0,2.5,0,4,0
			c0.6,0,1.1,0,1.6,0C147.2,37.3,147.3,37.3,147.4,37.3z"/>
		<path class="front32" d="M156.4,25.6c0-0.3,0.1-0.7,0.3-0.9c0.7-0.6,1.4-0.6,2.4-0.7c0.7,0,1.2,0,1.9,0c1.1,0,2.5,0,3.6,0.1
			c0.9,0,1.9,0.4,2,1.4c0.1,1.2-1,2.3-1.7,3c-0.7,0.7-1.7,1.6-2.3,2.3c2.4,0.3,4.7,1.5,4.7,4.5c0,3-2.4,5.2-5.8,5.2
			c-1.4,0-3.4-0.5-4.5-1.6c-0.7-0.7-1.2-2.3,0.1-2.7c0.9-0.3,1.7,0.3,2.5,0.7c1.1,0.7,2.4,0.9,3.7,0.2c1.4-0.8,1.2-2.5-0.1-3.3
			c-1.2-0.7-3-0.3-3.9-1.4c-1-1.2,1.2-2.8,1.9-3.6c0.5-0.5,1.2-1.3,1.4-1.7c0.2-0.5-0.9-0.3-1.3-0.3h-1.6c-0.8,0-2.3,0.1-3-0.5
			C156.5,26.3,156.4,26,156.4,25.6z"/>
		<path class="front32" d="M169.7,25.8c-0.5-0.1-0.8-0.9-0.8-1.6c0-0.7,0.6-1,1.2-1.2c0.7-0.2,1-0.2,1.7-0.2c0.4,0,1.1,0,1.5,0h1.9
			c0.2,0,0.4,0,0.6,0h0.7c0.3,0,0.6,0,0.8,0c0.3,0,0.6,0,0.8,0c0.1,0,0.3,0,0.4,0c0.1,0,0.2,0,0.3,0.1c0.3,0.1,0.5,0.3,0.7,0.6
			c0.3,0.5,0.3,1,0.3,1.5c0,1.4,0.1,3.7,0,5.1c0,0.9,0.1,1.6-0.3,2.3c-0.5,0.9-1.9,1.1-2.4,0.3c-0.6-0.9-0.4-1.7-0.4-2.8h-5.9
			c0,0-0.6,0-0.8-0.4c-0.1-0.2-0.1-0.4-0.1-0.7c0-0.3,0-0.5,0.2-0.7c0.2-0.3,0.4-0.4,0.7-0.4c0.2,0,0.4-0.1,0.7-0.1
			c0.9,0,2.2-0.1,3.2-0.1c0.6,0,1.5,0,2.2,0c0-0.6,0-1.2,0-1.8c-1,0-2.5-0.1-3.5-0.1C171.9,25.8,170.8,26,169.7,25.8z M171,40v-3.4
			c0-0.4,0-0.7,0-1c0.1-0.7,0.6-1.1,1.3-1.1c0.2,0,0.7,0,0.8,0.1c0.8,0.3,0.9,1,0.9,1.7c0,0.3,0,2.1,0.1,2.3c0.1,0,0.4,0.1,1.6,0.1
			c1,0,1.1,0,1.1,0h7.6c0,0,1,0.2,1,0.9c0.1,0.6,0,1-0.3,1.4c-0.4,0.4-0.9,0.5-1,0.5h-11.1C171.9,41.4,171,40.7,171,40z M185,29.9
			V32c0,0.3-0.1,0.7-0.3,1c-0.1,0.2-0.2,0.3-0.4,0.4c-0.2,0.2-0.5,0.3-0.8,0.3c-0.2,0-0.5-0.1-0.7-0.2c-0.6-0.4-0.7-1.2-0.7-1.2
			v-7.7c0-0.1,0-0.8,0.2-1.2c0.1-0.3,0.5-0.5,1-0.6c0.5-0.1,1,0.1,1.3,0.4c0.2,0.2,0.2,0.5,0.3,0.7c0.1,0.3,0.1,0.7,0.1,1v2.3
			c0.3,0,1.5,0.1,1.8,0.1c0.6,0.1,0.8,0.4,0.9,0.7c0.1,0.3,0.1,0.9-0.1,1.2c-0.4,0.6-1.2,0.6-2.1,0.6H185z"/>
		<path class="front32" d="M202.3,22.9c0.4,0.1,0.9,0.4,1.2,0.7c0.3,0.4,0.4,1.1,0.4,1.6c0,1.4,0.1,2.7,0,4c0,0.8,0.1,2-0.3,2.7
			c-0.5,0.8-1.8,1.1-2.3,0.2c-0.4-0.6-0.4-1.5-0.4-2.3v-2c0-0.5,0-1-0.1-1.5c-0.1-0.7-0.6-0.6-1.2-0.6c-0.6,0-1.7,0-2.2,0
			c-1,0-1.9,0-3-0.2c-0.8-0.1-0.8-1.3-0.7-1.8c0-0.3,0.2-0.5,0.5-0.7c0.3-0.2,0.8-0.2,1.1-0.2c0.4,0,5.4,0,5.9,0
			C201.6,22.8,202.1,22.8,202.3,22.9z M195.1,37.2c0-0.7-0.1-1.4,0.3-2.1c0.4-0.7,1.7-0.5,1.9-0.5H208c0.7,0,1.2,0,1.8,0.3
			c0.5,0.2,0.8,0.5,0.8,1.1c0,0.5-0.4,0.9-0.9,1.1c-0.3,0.1-0.7,0.1-1.3,0.1c-0.4,0-0.7,0-0.7,0h-8.1c-0.4,0-1.3-0.2-1.5,0.2
			c-0.1,0.2-0.3,1.3,0,1.4c0.1,0.1,0.6,0.1,0.8,0.1c0.3,0,0.7,0,1,0h4.4c0.3,0,0.6,0,0.8,0h3.4c0.8,0,1.4,0,1.9,0.2
			c0.3,0.1,0.6,0.3,0.6,0.6c0.1,0.4,0,0.8-0.2,1c-0.5,0.6-1.1,0.6-1.7,0.6c-0.7,0-5.2,0-5.2,0h-7.1c0,0-0.7-0.1-1-0.2
			c-0.5-0.2-0.6-0.9-0.6-1.3c0-0.7,0-1.5,0-2.2V37.2z M207.3,29.3c-0.9,0-1.7,0-2.1-0.6c-0.2-0.3-0.2-0.9-0.1-1.2
			c0.1-0.3,0.3-0.6,0.9-0.7c0.3,0,1.5-0.1,1.8-0.1v-2c0-0.3,0-0.7,0.1-1c0.1-0.2,0.1-0.5,0.3-0.7c0.3-0.3,0.7-0.4,1.3-0.4
			c0.5,0.1,0.8,0.3,1,0.6c0.2,0.4,0.2,1.1,0.2,1.2V32h0c0,0-0.1,0.9-0.7,1.3c-0.2,0.1-0.4,0.2-0.7,0.2c-0.3,0-0.5-0.1-0.8-0.3
			c-0.2-0.1-0.3-0.3-0.4-0.5c-0.2-0.3-0.2-0.7-0.3-1v-2.4H207.3z"/>
		<path class="front32" d="M218.7,36.3v-7.4c0-0.5,0-1,0-1.5c0-0.2,0-0.5-0.2-0.6c-0.2-0.1-0.4,0-0.6-0.1c-0.2,0-0.4,0-0.6,0h-1.1
			c-0.5,0-1.1,0-1.6,0c-0.2,0-0.4,0-0.7,0c-0.3,0-0.7,0-1-0.2c-0.4-0.3-0.6-0.8-0.6-1.3c0-0.3,0-0.6,0.2-0.9
			c0.1-0.2,0.2-0.3,0.3-0.4c0.2-0.2,0.5-0.3,0.7-0.3c0.7-0.2,1.4-0.1,2.1-0.1h4.1c0.4,0,0.9,0.1,1.3,0.2c0.2,0.1,0.5,0.3,0.7,0.5
			c0.3,0.4,0.3,0.9,0.3,1.4c0.1,0.9,0,1.7,0,2.6v7.6c0,0.1,0,2,0,3c0,0.6-0.2,1.4-1,1.7c-0.3,0.1-0.6,0.2-0.8,0.2
			c-0.4,0-0.9-0.2-1-0.5c-0.2-0.5-0.4-1-0.4-1.7v-1C218.7,37.1,218.7,36.7,218.7,36.3z M229.5,40.8c0,0.1-0.1,0.2-0.1,0.3
			c-0.1,0.2-0.2,0.4-0.4,0.5c-0.3,0.2-0.8,0.3-1.2,0.2c-0.2,0-0.4-0.1-0.6-0.3c-0.6-0.5-0.5-1.7-0.5-1.8V25.4c0-0.7,0-1.9,0.4-2.3
			c0.3-0.3,0.7-0.4,1.1-0.4c0.5,0,1,0.3,1.2,0.8c0.3,0.7,0.3,1.4,0.3,2.1v0.1c0.1,2.4,0,5,0,7.3v5.9c0,0.3,0,0.6,0,0.8
			C229.6,40.1,229.6,40.4,229.5,40.8z"/>
	</g>
	<g>
		<defs>
			<rect id="SVGID_1_" x="251.1" y="11.4" width="41.8" height="41.8"/>
		</defs>		
			<g id="그룹_72_00000148622601118731020550000011415985890769178803_" transform="translate(6.784 61.407)" style="clip-path:url(#SVGID_00000013882336538585995680000011455400066795043511_);">
			<path id="패스_56_00000109012622607025689080000005930783231534651797_" class="front32" d="M246.4-29.1"/>
			<path id="패스_57_00000145765578140734219450000007479238752643702929_" class="front34" d="M267.1-37.2c-0.4,0.4-0.4,1.1,0,1.5
				l5.5,5.5h-17.3c-0.6,0-1,0.5-1,1c0,0.6,0.5,1,1,1l0,0h17.3l-5.5,5.5c-0.4,0.4-0.4,1.1,0,1.5c0.4,0.4,1,0.4,1.5,0l7.3-7.3
				c0.4-0.4,0.4-1.1,0-1.5l-7.3-7.3C268.2-37.6,267.5-37.6,267.1-37.2"/>
		</g>
	</g>
</g>
</svg>
