<?xml version="1.0" encoding="utf-8"?>
<!-- Generator: Adobe Illustrator 26.0.3, SVG Export Plug-In . SVG Version: 6.00 Build 0)  -->
<svg version="1.0" id="레이어_1" xmlns="http://www.w3.org/2000/svg" xmlns:xlink="http://www.w3.org/1999/xlink" x="0px"
	 y="0px" width="309.4px" height="88.8px" viewBox="0 0 309.4 88.8" style="enable-background:new 0 0 309.4 88.8;"
	 xml:space="preserve">
<style type="text/css">
	.rotateR0{fill:#EA8B00;}
	.rotateR1{fill:#FDB606;}
	.rotateR2{fill:#FFFFFF;}
	.rotateR3{clip-path:url(#SVGID_00000067914530871918379310000017986865002726476215_);}
	.rotateR4{fill:#FFFFFF;stroke:#FFFFFF;stroke-width:1.5;}
</style>
<g>
	<g>
		<path class="rotateR0" d="M61.1,88.8c-14,0-25.5-10.6-27-24.1H18.6C8.4,64.6,0,56.3,0,46V18.6C0,8.4,8.4,0,18.6,0H40v3
			c0,11.7,9.5,21.1,21.1,21.1S82.3,14.7,82.3,3V0h227.1v64.6H88.1C86.6,78.2,75.1,88.8,61.1,88.8z"/>
		<path class="rotateR1" d="M238.8,3h-29.3H107.3H85.3c0,13.3-10.8,24.1-24.1,24.1C47.8,27.1,37,16.3,37,3h-4.7H18.6C10,3,3,10,3,18.6V46
			c0,8.6,7,15.6,15.6,15.6H37C37,75,47.8,85.8,61.1,85.8c13.3,0,24.1-10.8,24.1-24.1h22.1h183.4h15.6V46V18.6V3h-15.6H238.8z"/>
		<g>
			<path class="rotateR2" d="M108.9,37.3c0.5,0,1,0.2,1.4,0.5c0.2,0.2,0.3,0.5,0.3,0.8c0,0.3-0.1,0.8-0.3,1c-0.5,0.5-1.6,0.4-1.7,0.4
				H95.5c-0.1,0-0.3,0-0.5,0c-0.7,0-1.5,0.1-2-0.4c-0.3-0.3-0.5-0.6-0.5-1c0-0.5,0.3-1,0.8-1.2c0.6-0.2,1.3-0.2,2-0.2h0.1
				c1.3,0,2.8,0,4.2,0l0-3.4c-1.9-0.1-3.7-0.6-4.8-2.2c-0.7-1-0.9-2.1-0.9-3.2c0-2.4,1.4-4.1,3.6-4.8c1.5-0.5,3.1-0.6,4.6-0.5
				c1.3,0.1,2.6,0.2,3.8,0.7c0.5,0.3,1,0.6,1.5,1c1.1,1.2,1.4,2.6,1.3,4.1c-0.3,3.5-3,4.9-6.1,4.9l0,3.4c1.7,0,2.8,0,4.4,0
				c0.6,0,1.1,0,1.6,0C108.7,37.3,108.8,37.3,108.9,37.3z M105.6,28.8c0-1.6-1.1-2.4-2.6-2.5c-1.7-0.2-5.6-0.7-5.9,1.8
				c-0.2,1.5,0.4,2.8,2.6,3c1.1,0.1,2.2,0.3,3.3,0.1c1.1-0.2,2.3-0.7,2.5-1.8C105.6,29.2,105.7,29,105.6,28.8z"/>
			<path class="rotateR2" d="M129,32.9c0,0.3-0.2,0.7-0.5,1c-0.5,0.4-1.3,0.4-1.9,0.4c-0.1,0-0.3,0-0.4,0h-12.8c0,0-1.1,0-1.6-0.4
				c-0.2-0.2-0.3-0.5-0.3-0.8c0-0.3,0.1-0.6,0.3-0.8c0.4-0.4,0.8-0.7,1.3-0.7c0.1,0,0.2,0,0.3,0c0.4,0,1,0,1.5,0c1.6,0,3.3,0,5.1,0
				c2,0,4.3,0,6.4,0h0.1C127.5,31.5,129,31.3,129,32.9z M128.1,39.3c0.1,0.6,0,1-0.3,1.4c-0.3,0.4-0.9,0.5-0.9,0.5h-12.7
				c-1.2,0-1.9-0.4-1.9-1.1V38c0-0.3,0-0.7,0-1c0-0.7,0.5-1.1,1.2-1.1c0.2,0,0.5,0,0.6,0.1c0.8,0.3,0.8,1,0.9,1.7
				c0,0.3,0,0.5,0.1,0.7c0.1,0,0.5,0.1,1.6,0.1c0.9,0,1.8,0,1.8,0h8.6C127.2,38.4,128,38.7,128.1,39.3z M128,29.3
				c0.2,0.6,0,1-0.6,1.3c-0.4,0.1-0.8,0.2-1.1,0.2h-10.7c-0.6,0-1.3,0-2,0c-0.7,0-1.1-0.5-1.2-1.3c0-0.6,0-1.2,0-1.7
				c0-0.1,0-0.2,0-0.2c0-0.4,0-0.9,0.3-1.3c0.4-0.5,1.2-0.5,1.9-0.5h8.6c1.1,0,1.1,0,1.9,0c0-0.1,0.1-0.9,0-0.9h-10
				c-0.2,0-0.3,0-0.5,0H114c-0.3,0-0.6,0-0.8,0c-0.3-0.1-0.6-0.2-0.7-0.4c-0.1-0.3-0.1-0.6-0.1-0.9c0-0.3,0.2-0.5,0.4-0.7
				c0.3-0.2,0.5-0.2,0.8-0.2c0.2,0,0.5,0,0.7,0c0.3,0,0.5,0,0.8,0c1,0,2.6,0,4,0h6.4c1.6,0,2.4,0.5,2.4,1.7v1.6
				c0,0.6,0.1,1.4-0.4,1.7c-0.5,0.3-1.1,0.2-1.7,0.2h-10.7v0.9h11c0.3,0,0.5,0,0.8,0C127.4,28.6,127.8,28.7,128,29.3z"/>
			<path class="rotateR2" d="M143.3,25.5c0,0.5,0,1,0.7,1.8l1.5,1.7c0.3,0.4,0.6,1.3-0.1,1.6c-0.3,0.2-1.2,0.2-1.7-0.3l-2.1-1.7
				c-0.5,0.5-1,0.9-1.6,1.4l0,0c0.1,0.1,0.1,0.3,0.1,0.4c0,0.4,0.1,1.2,0.1,1.7c1.7,0,3.7-0.1,5,0c0.5,0,1.1,0.1,1.5,0.4
				c0.2,0.2,0.3,0.4,0.3,0.7c0,0.3-0.1,0.7-0.3,0.9c-0.5,0.5-1.7,0.4-1.7,0.4l-12.4,0c-0.7,0-1.6,0.1-2.1-0.4
				c-0.3-0.3-0.5-0.6-0.5-0.9c0-0.4,0.3-0.9,0.8-1.1c0.7-0.2,1.4-0.1,2.1-0.2c1.5,0,2.5,0,4,0v-1.6c0-0.1,0-0.3,0-0.4c0,0,0,0,0,0
				c-0.6-0.6-1.3-1.3-1.5-1.6c-0.5,0.5-1,1-1.6,1.4c-0.5,0.4-1.7,1.1-2.5,0.5c-0.7-0.5-0.1-1.2,0.3-1.7l1.4-1.3c0.7-0.7,1-1.1,1-1.9
				v0h-1c0,0-2,0.2-2.1-1.1c-0.1-0.9,0.5-1.3,1.3-1.3c0.2,0,0.8,0,1.1,0l10.8,0c1.1,0,2,0.3,2,1.2c0,1.1-0.8,1.3-1.8,1.3
				C143.8,25.6,143.5,25.5,143.3,25.5z M145.7,37v1.5c0,0.3,0,2,0,2.4c0,0.7-0.6,1.1-1.3,1.1c-0.2,0-0.3,0-0.5-0.1
				c-0.8-0.3-0.9-1-0.9-1.7c0-0.3,0-1.4-0.1-1.6c-0.1,0-0.4-0.1-1.6-0.1c-1,0-1.8,0-1.8,0h-7.8c0,0-1-0.2-1-0.8
				c-0.1-0.6,0-1,0.3-1.4c0.4-0.4,0.9-0.4,1-0.4l11.7,0C145,35.9,145.7,36.3,145.7,37z M137.5,27.2l0.8,1.1l1-0.9
				c0.5-0.5,0.8-1.1,0.9-1.8H137C137,26.2,137,26.6,137.5,27.2z"/>
			<path class="rotateR2" d="M147.9,38.4c0-0.3,0.1-0.6,0.3-0.8c0.5-0.5,1.6-0.5,1.7-0.5l13,0c0.8,0,1.5-0.1,2,0.3c0.3,0.3,0.5,0.6,0.5,1
				c0,0.5-0.3,0.9-0.8,1c-0.6,0.2-1.3,0.3-2,0.4c-2.3,0.1-4.5,0-6.6,0c-2.2,0-4.8,0.1-6.2,0C148.9,39.9,147.9,39.7,147.9,38.4z
				 M162.9,25.1c1.1,1.2,1.4,3,1.3,4.5c-0.3,3.5-3.1,5.2-6.2,5.2c-2.6,0-5.9,0.3-7.7-2.2c-0.7-1-0.9-2.4-0.9-3.5
				c0-2.4,1.4-4.5,3.6-5.3c1.5-0.5,3.1-0.7,4.6-0.6C159.8,23.4,161.5,23.6,162.9,25.1z M160.9,29.4c0-1.6-1-2.7-2.4-2.8
				c-0.5,0-1-0.1-1.7-0.1c-1.8,0-3.9,0.4-4.2,2.2c-0.2,1.5,0.4,3.1,2.6,3.3c0.5,0,1,0.1,1.4,0.1c1.6,0.1,3.7-0.2,4.2-2.2
				C160.9,29.8,161,29.6,160.9,29.4z"/>
			<path class="rotateR2" d="M182.5,37.3c0.5,0,1,0.2,1.4,0.5c0.2,0.2,0.3,0.5,0.3,0.8c0,0.3-0.1,0.8-0.3,1c-0.5,0.5-1.6,0.4-1.7,0.4
				h-13.1c-0.1,0-0.3,0-0.5,0c-0.7,0-1.5,0.1-2-0.4c-0.3-0.3-0.5-0.6-0.5-1c0-0.5,0.3-1,0.8-1.2c0.6-0.2,1.3-0.2,2-0.2h0.1
				c1.5,0,3,0,4.6,0l0-2.2h-2.4c-0.6,0-1.3,0-2,0c-0.7,0-1.1-0.7-1.2-1.5c0-0.6-0.1-2.8-0.1-3.2v-0.6c0-0.4,0-0.8,0.3-1.2
				c0.4-0.5,1.2-0.6,1.9-0.6c0.2,0,0.6,0,0.8,0h8.3v-2h-8.5c-0.2,0-0.3,0-0.5,0c-0.2,0-0.4,0-0.6,0c-0.3,0-0.6,0-0.8-0.1
				c-0.3-0.1-0.5-0.3-0.7-0.5c-0.2-0.4-0.3-0.7-0.2-1.1c0.2-0.6,0.9-0.8,1.2-0.9c0.2,0,0.5,0,0.7,0h0.8c1,0,3.1,0,4.4,0h4.7
				c0.5,0,1.1,0,1.6,0.2c0.7,0.2,0.9,1.1,0.9,1.8v3.1c0,0.5-0.2,1.8-0.7,2.1c-0.4,0.3-0.8,0.3-1.2,0.2h-9.2v1.9h9.2
				c0.3,0,0.5,0,0.8,0c0.5,0,0.9,0.2,1,0.8c0.2,0.6,0,1.2-0.6,1.5c-0.4,0.2-0.8,0.2-1.1,0.2h-4l0,2.2c1.5,0,2.5,0,4,0
				c0.6,0,1.1,0,1.6,0C182.4,37.3,182.5,37.3,182.5,37.3z"/>
			<path class="rotateR2" d="M207.8,31.1c0.2,0.2,0.3,0.4,0.3,0.7c0,0.3-0.1,0.7-0.3,0.9c-0.5,0.5-1.7,0.4-1.7,0.4l-12.4,0
				c-0.7,0-1.6,0.1-2.1-0.3c-0.3-0.3-0.5-0.6-0.5-0.9c0-0.4,0.3-0.9,0.8-1.1c0.7-0.2,1.4-0.1,2.1-0.2c1.5,0,2.2,0,3.7,0v-1.3
				c-1.4,0-3-0.1-4.4-0.1c-1.5,0-1.5-1-1.5-2.3v-2.3c0-1.4,0.7-2.1,2.1-2.1h10.8c0.6,0,1.2,0,1.8,0.3c0.5,0.2,0.8,0.7,0.8,1.2
				c0,0.5-0.4,1-0.9,1.1c-0.3,0.1-0.7,0.1-1.3,0.1c-0.4,0-0.7,0-0.7,0h-2.1c-2,0-4,0-6-0.1c-0.4,0-0.8,0-1.1,0.1
				c-0.3,0.1-0.3,1-0.2,1.4c0.4,0.1,0.9,0.1,1.3,0.1l8.4,0c0.8,0,2.3,0.1,2.4,1c0.3,1.3-1,1.7-1.9,1.7c-0.5,0-3,0-4.3,0
				c0,0.4,0,0.9,0,1.3c1.7,0,4-0.1,5.3,0C206.8,30.7,207.3,30.7,207.8,31.1z M207.4,40.5c0.2,0.6,0,1-0.6,1.2
				c-0.4,0.1-0.8,0.2-1.1,0.2h-10.8c-0.6,0-1.3,0-2,0c-0.7,0-1.1-0.5-1.2-1.2l-0.1-1.7c0-0.3,0-1,0.2-1.3c0.4-0.5,1.3-0.5,1.9-0.5
				c0.9,0,3.6,0,10.7,0v-0.9h-11.2c-0.3,0-0.6,0-0.8,0c-0.3-0.1-0.5-0.1-0.7-0.3c-0.2-0.3-0.3-0.7-0.2-1c0.2-0.6,1.2-0.7,1.9-0.7
				c1.4,0,3.1,0,11.4,0c1.6,0,2.2,0.5,2.2,1.6v1.8c0,0.4-0.2,0.9-0.7,1.2c-0.4,0.2-0.8,0.2-1.2,0.2h-10.8v0.9h11.9
				C206.8,39.9,207.3,40,207.4,40.5z"/>
			<path class="rotateR2" d="M215.3,36.3v-7.4c0-0.5,0-1,0-1.5c0-0.2,0-0.5-0.2-0.6c-0.2-0.1-0.4,0-0.6-0.1c-0.2,0-0.4,0-0.6,0h-1.1
				c-0.5,0-1.1,0-1.6,0c-0.2,0-0.4,0-0.7,0c-0.3,0-0.7,0-1-0.2c-0.4-0.3-0.6-0.8-0.6-1.3c0-0.3,0-0.6,0.2-0.9
				c0.1-0.2,0.2-0.3,0.3-0.4c0.2-0.2,0.5-0.3,0.7-0.3c0.7-0.2,1.4-0.1,2.1-0.1h4.1c0.4,0,0.9,0.1,1.3,0.2c0.2,0.1,0.5,0.3,0.7,0.5
				c0.3,0.4,0.3,0.9,0.3,1.4c0.1,0.9,0,1.7,0,2.6v7.6c0,0.1,0,2,0,3c0,0.6-0.2,1.4-1,1.7c-0.3,0.1-0.6,0.2-0.8,0.2
				c-0.4,0-0.9-0.2-1-0.5c-0.2-0.5-0.4-1-0.4-1.7v-1C215.3,37.1,215.3,36.7,215.3,36.3z M226.2,40.8c0,0.1-0.1,0.2-0.1,0.3
				c-0.1,0.2-0.2,0.4-0.4,0.5c-0.3,0.2-0.8,0.3-1.2,0.2c-0.2,0-0.4-0.1-0.6-0.3c-0.6-0.5-0.5-1.7-0.5-1.8V25.4c0-0.7,0-1.9,0.4-2.3
				c0.3-0.3,0.7-0.4,1.1-0.4c0.5,0,1,0.3,1.2,0.8c0.3,0.7,0.3,1.4,0.3,2.1v0.1c0.1,2.4,0,5,0,7.3v5.9c0,0.3,0,0.6,0,0.8
				C226.3,40.1,226.3,40.4,226.2,40.8z"/>
		</g>
	</g>
	<g id="그룹_74_00000076592125530057218500000011506180710622349998_" transform="translate(191.067 69.833)">
		<g>
			<defs>
				<rect id="SVGID_1_" x="65.8" y="-53.6" width="30.4" height="32.2"/>
			</defs>
				<g id="그룹_74-2_00000140700884887124695320000010085940199247087749_" style="clip-path:url(#SVGID_00000049924377447059070300000000850547463746515103_);">
				<path id="패스_60_00000109738375532845170940000007153692655455268745_" class="rotateR4" d="M81.7-41.3c0,0,0.1-0.1,0.1-0.1
					c0,0,0.1-0.1,0.1-0.1c0.1-0.1,0.2-0.2,0.3-0.2s0.2-0.2,0.3-0.3c0.1-0.1,0.2-0.2,0.4-0.3c0,0,0,0,0.1,0c0,0,0,0,0,0c0,0,0,0,0,0
					c0.1,0,0.1-0.1,0.2-0.1c0,0,0.1,0,0.1-0.1c0,0,0.1,0,0.1-0.1l0.2-0.1c0,0,0.1-0.1,0.1-0.1c0.1-0.1,0.2-0.1,0.3-0.2c0,0,0,0,0,0
					c0,0,0,0,0,0l0.2-0.1c0,0,0.1,0,0.1-0.1c0.2-0.1,0.3-0.2,0.5-0.3c0.1-0.1,0.2-0.1,0.3-0.1c0.1,0,0.1-0.1,0.2-0.1l0.1,0
					c0,0,0.1,0,0.1-0.1c0,0,0.1,0,0.1-0.1c0,0,0,0,0,0l0,0l-1.3,3.8c-0.1,0.4,0.1,0.9,0.5,1s0.9-0.1,1-0.5l1.7-5l0,0l0.1-0.4
					c0,0,0,0,0,0l0,0c0,0,0-0.1,0-0.1c0,0,0,0,0,0c0,0,0-0.1,0-0.1c0,0,0,0,0,0l0,0c0,0,0-0.1,0-0.1v0c0,0,0-0.1,0-0.1
					c0,0,0-0.1,0-0.1c0,0,0,0,0-0.1c0,0,0,0,0-0.1c0,0,0,0,0,0L87.5-46c0,0,0,0,0,0c0,0,0,0-0.1,0c0,0,0,0,0,0l-0.2-0.1h0l0,0l0,0
					l-4.8-2.4c-0.4-0.2-0.9,0-1.1,0.4c-0.2,0.4,0,0.9,0.4,1.1l3.5,1.7l0,0c0,0,0,0,0,0c-0.1,0-0.1,0.1-0.2,0.1l0,0l-0.1,0
					c0,0,0,0-0.1,0c0,0,0,0,0,0c-0.1,0-0.1,0.1-0.2,0.1L84.2-45c-0.1,0-0.2,0.1-0.2,0.1c-0.1,0.1-0.2,0.1-0.3,0.2s-0.2,0.1-0.3,0.2
					c-0.1,0-0.1,0.1-0.1,0.1c-0.1,0.1-0.2,0.1-0.3,0.2L82.5-44c0,0-0.1,0-0.1,0.1c0,0,0,0-0.1,0.1c0,0,0,0,0,0c0,0,0,0,0,0
					c0,0,0,0-0.1,0.1c0,0,0,0,0,0c-0.2,0.1-0.3,0.3-0.5,0.4c0,0,0,0,0,0c-0.1,0.1-0.3,0.2-0.4,0.4s-0.3,0.3-0.5,0.4
					c-0.1,0.1-0.3,0.3-0.4,0.4c-0.1,0.1-0.3,0.3-0.4,0.5c-0.1,0.2-0.3,0.3-0.4,0.5c-0.3,0.4-0.7,0.8-0.9,1.3
					c-0.2,0.3-0.3,0.5-0.5,0.8c-0.1,0.1-0.2,0.3-0.3,0.5c0,0.1-0.1,0.1-0.1,0.2c0,0,0,0.1,0,0.1c0,0,0,0.1-0.1,0.1l-0.1,0.1
					c0,0.1-0.1,0.2-0.1,0.2c0,0.1-0.1,0.2-0.1,0.3c0,0.1-0.1,0.2-0.1,0.3c-0.1,0.2-0.1,0.3-0.2,0.5c0,0,0,0,0,0.1
					c-0.1,0.2-0.1,0.4-0.2,0.5s-0.1,0.4-0.2,0.6l0,0c-0.1,0.5-0.3,0.9-0.4,1.4c0,0.2-0.1,0.3-0.1,0.5c0,0.3-0.1,0.6-0.1,0.9
					c0,0.1,0,0.1,0,0.2c0,0.2,0,0.3,0,0.5c0,0.2,0,0.4,0,0.7v0.4c0,0.1,0,0.2,0,0.3v0.1c0,0.1,0,0.3,0,0.4c0,0.2,0,0.4,0,0.6
					c0,0.1,0,0.2,0,0.3c0,0.1,0,0.1,0,0.2c0,0,0,0,0,0c0,0,0,0,0,0c0,0.3,0.1,0.6,0.1,0.9c0,0.1,0,0.1,0,0.2c0,0.1,0,0.1,0,0.2
					c0,0.1,0,0.3,0.1,0.4c0,0,0,0.1,0,0.1l0,0.2h0c0,0.1,0,0.2,0.1,0.3c0,0.2,0.1,0.3,0.1,0.5c0,0.1,0.1,0.2,0.1,0.3
					c0.1,0.3,0.2,0.5,0.3,0.7l0.1,0.3c0,0,0,0.1,0.1,0.1l0,0c0.2,0.4,0.7,0.5,1.1,0.3c0,0,0.1,0,0.1-0.1c0.2-0.2,0.3-0.5,0.3-0.7
					l-0.2-0.5c0,0,0-0.1,0-0.1c0-0.1-0.1-0.2-0.1-0.3c0-0.1-0.1-0.3-0.1-0.4c0-0.1,0-0.1-0.1-0.2c0,0,0,0,0,0c0,0,0,0,0,0
					c0,0,0,0,0-0.1c0,0,0-0.1,0-0.1c0,0,0-0.1,0-0.1c0,0,0,0,0,0v0c0,0,0-0.1,0-0.1c0,0,0,0,0-0.1c0,0,0,0,0-0.1l0,0c0,0,0,0,0,0
					c0,0,0-0.1,0-0.1c0,0,0,0,0,0c0-0.2-0.1-0.4-0.1-0.5c0,0,0-0.1-0.1-0.1c0-0.1,0-0.3-0.1-0.4c0-0.1,0-0.1,0-0.2
					c0-0.1,0-0.2,0-0.2c0,0,0,0,0-0.1c0,0,0-0.1,0-0.1c0-0.1,0-0.3,0-0.4c0,0,0-0.1,0-0.1c0-0.1,0-0.2,0-0.3c0-0.2,0-0.4,0-0.5
					c0-0.2,0-0.4,0-0.7c0-0.1,0-0.2,0-0.3c0,0,0-0.1,0-0.1c0,0,0-0.1,0-0.1c0-0.5,0.1-1,0.2-1.5c0-0.2,0.1-0.3,0.1-0.5
					c0.1-0.2,0.1-0.5,0.2-0.7c0-0.1,0.1-0.3,0.1-0.4c0.1-0.2,0.2-0.5,0.3-0.7c0-0.1,0.1-0.2,0.1-0.3s0.1-0.2,0.1-0.4
					c0.1-0.1,0.1-0.2,0.1-0.3c0-0.1,0.1-0.1,0.1-0.2c0-0.1,0.1-0.1,0.1-0.2c0,0,0,0,0-0.1c0,0,0-0.1,0.1-0.1
					c0.1-0.1,0.1-0.2,0.2-0.3c0.2-0.3,0.3-0.6,0.5-0.8c0.2-0.3,0.4-0.6,0.6-0.8c0.1-0.2,0.3-0.4,0.5-0.6c0.2-0.2,0.3-0.4,0.5-0.5
					C81.4-40.9,81.5-41.1,81.7-41.3L81.7-41.3z"/>
			</g>
		</g>
	</g>
</g>
</svg>
