<?xml version="1.0" encoding="utf-8"?>
<!-- Generator: Adobe Illustrator 26.0.3, SVG Export Plug-In . SVG Version: 6.00 Build 0)  -->
<svg version="1.0" id="레이어_1" xmlns="http://www.w3.org/2000/svg" xmlns:xlink="http://www.w3.org/1999/xlink" x="0px"
	 y="0px" width="309.4px" height="88.8px" viewBox="0 0 309.4 88.8" style="enable-background:new 0 0 309.4 88.8;"
	 xml:space="preserve">
<style type="text/css">
	.start0{fill:#A80000;}
	.start1{fill:#DF342B;}
	.start2{fill:#FFFFFF;}
	.start3{fill:none;}
	.start4{fill:#FFFFFF;stroke:#FFFFFF;stroke-width:1.5;stroke-miterlimit:10;}
</style>
<g>
	<path class="start0" d="M61.1,88.8c-14,0-25.5-10.6-27-24.1H0V32.3C0,14.5,14.5,0,32.3,0h277.1v64.6H88.1
		C86.6,78.2,75.1,88.8,61.1,88.8z"/>
	<path class="start1" d="M209.5,3h-139H32.3C16.1,3,3,16.1,3,32.3v0v29.3h29.3H37C37,75,47.8,85.8,61.1,85.8S85.3,75,85.3,61.6h124.3
		h29.3h67.5V3H209.5z"/>
	<g>
		<path class="start2" d="M103,38.3c0.1,0.3,0.2,0.7,0,1.2c-0.2,0.5-0.6,0.7-1,0.8h0c-0.6,0-0.9-0.4-1.4-1c-0.5-0.5-0.8-1-1.1-1.4
			c0-0.1-0.1-0.1-0.1-0.3c-0.8-1.2-1.1-1.6-1.2-1.6c-0.1,0-0.4,0.4-0.4,0.5c-0.1,0.1-0.1,0.2-0.2,0.2c-0.3,0.3-0.4,0.7-0.7,1
			c-0.3,0.3-0.5,0.7-0.8,1c-0.1,0.1-0.1,0.2-0.2,0.2c-0.5,0.5-1,1.1-1.6,1.3c-0.2,0.1-0.3,0.1-0.5,0.1c-0.3,0-0.7-0.2-1-0.4
			c-0.3-0.3-0.4-0.6-0.4-1c0-0.6,0.4-1.1,0.6-1.5l0-0.1c0.1-0.1,0.2-0.3,0.3-0.4c0-0.1,0.1-0.2,0.2-0.2c0.2-0.3,0.3-0.5,0.5-0.7
			c0,0,0.1-0.1,0.1-0.2c0,0,0-0.1,0.1-0.1l0-0.1c0.1-0.2,0.2-0.3,0.3-0.4c0.2-0.3,0.4-0.6,0.5-0.9c0.2-0.4,0.4-0.7,0.6-1
			c0.2-0.2,0.3-0.5,0.5-0.7l0.1-0.1c0.2-0.4,0.3-0.6,0.3-0.9c0-0.5,0-1,0-1.5v-3.8c0-0.3,0-0.6,0-0.9c0-0.3,0.1-0.7,0.2-1
			c0.1-0.2,0.2-0.4,0.3-0.6c0.2-0.2,0.5-0.3,0.8-0.4l0,0c0.3-0.1,0.4,0,0.7,0c0.1,0,0.3,0.1,0.3,0.2c0.1,0.1,0.2,0.4,0.3,0.6
			c0.1,0.3,0.2,0.7,0.3,1.1c0.1,1.3,0.1,2.8,0.1,4.1c0,0.8,0,1.6,0.1,2.4c0,0.7,0.4,1.3,0.8,1.8c0.3,0.7,0.7,1.4,1.1,2
			c0.2,0.3,0.3,0.6,0.5,0.9c0.1,0.1,0.1,0.3,0.2,0.4c0.1,0.2,0.2,0.3,0.2,0.5l0.1,0.2l0.1,0.1C102.9,37.9,103,38.1,103,38.3z
			 M108.5,40.8c0,0.1-0.1,0.2-0.1,0.3c-0.1,0.2-0.2,0.4-0.4,0.5c-0.3,0.2-0.8,0.3-1.2,0.2c-0.2,0-0.4-0.1-0.6-0.3
			c-0.6-0.5-0.5-1.7-0.5-1.8V25.4c0-0.7,0-1.9,0.4-2.3c0.3-0.3,0.7-0.4,1.1-0.4c0.5,0,1,0.3,1.2,0.8c0.3,0.7,0.3,1.4,0.3,2.1v0.1
			c0.1,2.4,0,5,0,7.3v5.9c0,0.3,0,0.6,0,0.8C108.6,40.1,108.6,40.4,108.5,40.8z"/>
		<path class="start2" d="M117.1,27.6c0.2,0.1,0.7,0.6,0.9,0.8c0.3,0.3,0.6,0.6,1,0.9c0.2,0.2,0.4,0.4,0.6,0.6c0.6,0.6,1.3,1.3,1.5,2
			c0.1,0.3,0,0.7-0.3,0.9c-0.2,0.1-0.5,0.2-0.8,0.2c-0.7,0-1.4-0.4-1.7-0.6c-0.6-0.4-1.1-0.9-1.6-1.4c-0.3-0.3-0.8-0.9-1.2-1.2
			l-0.6,0.6c-0.2,0.2-0.4,0.4-0.6,0.6c-0.4,0.4-0.8,0.9-1.4,1.3c-0.6,0.5-1.2,0.7-1.8,0.7c-0.1,0-0.3,0-0.4,0
			c-0.3-0.1-0.6-0.2-0.7-0.4c-0.2-0.3-0.1-0.8,0.1-1.2c0.2-0.3,0.6-0.7,0.9-1c0.6-0.6,2.7-2.6,2.9-2.8v-1.9h-1.5
			c-0.8,0-2.1,0.2-2.5-0.7c-0.1-0.3-0.2-0.8-0.1-1.2c0.1-0.4,0.7-0.6,1-0.6c0.1,0,2.1,0,2.3,0h5.5c1.2,0,2.1,0.1,2.6,0.7
			c0.3,0.4,0.2,1.4-0.3,1.6c-0.2,0.1-0.6,0.2-0.9,0.3c-0.4,0-0.9,0-1.3,0h-1.5C117.1,25.6,117.1,27.4,117.1,27.6z M126.5,36.4v1.3
			c0,0.2,0,1.6,0,1.8c0,0.3,0,0.7,0,1c0,0.7-0.6,1.1-1.3,1.1c-0.2,0-0.7,0-0.8-0.1c-0.8-0.3-0.9-1-0.9-1.7c0-0.3,0-1.8-0.1-2.1
			c-0.1,0-0.4-0.1-1.6-0.1c-1,0-1.1,0-1.1,0h-8.4c0,0-1-0.2-1-0.9c-0.1-0.6,0-1.1,0.3-1.4c0.4-0.4,0.9-0.4,1-0.5h12.1
			C125.9,35,126.5,35.7,126.5,36.4z M126.5,29.8v2.1c0,0.3-0.1,0.7-0.3,1c-0.1,0.2-0.2,0.3-0.4,0.5c-0.2,0.2-0.6,0.2-0.9,0.2
			c-0.2,0-0.6,0-0.7-0.2c-0.6-0.4-0.7-1.2-0.7-1.3v-7.7c0-0.1,0-0.8,0.2-1.2c0.1-0.3,0.6-0.5,1-0.6c0.5-0.1,1.1,0.1,1.4,0.3
			c0.2,0.2,0.2,0.5,0.3,0.7c0.1,0.3,0.1,0.7,0.1,1v1.6c0,0,0,0.3,0,0.7c0.3,0,1.5,0,1.8,0.1c0.6,0.1,0.8,0.4,0.9,0.7
			c0.1,0.3,0.1,0.9-0.1,1.2c-0.4,0.6-1.2,0.6-2.1,0.6H126.5z"/>
		<path class="start2" d="M140.5,25.4c0.2,0.4,0.1,1.1-0.2,1.5c-0.6,0.8-2.9,0.5-3.4,0.5c-0.2,0-0.5,0-0.7,0h-0.7c-0.2,0-0.5,0-0.7,0
			l-2.8,0c-1.6,0-2.2-0.4-2.3-1.3c-0.1-0.5,0.1-0.8,0.3-1.1c0.4-0.4,0.7-0.4,1.1-0.4c0.1,0,0.3,0,0.4,0h0.6c0.4,0,1.1,0,1.5,0
			c0-0.2,0-1,0.1-1.2c0-0.3,0.1-0.5,0.3-0.7c0.3-0.4,0.7-0.7,1.2-0.6c0.4,0,0.9,0.1,1.2,0.4c0.3,0.5,0.2,1.5,0.3,2.2h0.7
			c0.3,0,0.8,0,1.1,0h0.4C139.5,24.7,140.2,24.8,140.5,25.4z M139,38.9c-1.4,2.4-5.3,2.6-7.2,0.6c-0.8-0.9-1.1-1.8-1.2-2.9
			c-0.3-2.3-0.5-4.3,0.7-6.4c0.7-1.2,2.6-1.8,4.3-1.7C140.6,28.6,140.8,35.6,139,38.9z M137.4,35.1c0-1.1-0.1-2.8-1-3.4
			c-0.8-0.6-2.6-0.3-3,0.7c-0.6,1.3-0.5,2.5-0.3,3.9c0.1,0.7,0.4,1.5,1,1.9c0.3,0.2,1.2,0.2,1.4,0.2
			C136.9,38.1,137.4,36.3,137.4,35.1z M146.5,30.1c0.1,0,0.3,0,0.4,0c0.2,0,0.3,0,0.5,0.1c0.3,0.1,0.7,0.2,0.9,0.6
			c0.1,0.2,0.2,0.4,0.2,0.6c0,0.2,0,0.4-0.1,0.7c0,0.2-0.1,0.6-0.3,0.7c-0.2,0.1-0.4,0.3-0.6,0.3c-0.5,0.1-1.3,0-1.8,0
			c0,0-0.1,0-0.1,0s0,0,0,0.1c0,0.8,0,1.9,0,2.7c0,0.8,0,1.6,0,2.4v0.3c0,0.8,0,2-0.6,2.6c-0.2,0.2-0.4,0.3-0.7,0.3c0,0,0,0,0,0
			c-1.5,0-1.7-1.9-1.7-2.8V24.9c0,0,0-1.2,0.5-1.7c0.2-0.2,0.7-0.3,1-0.3c0.3,0,0.7,0.1,0.9,0.4c0.4,0.4,0.4,0.9,0.5,1.4
			c0,0.1,0,0.2,0,0.3c0.1,0.5,0.1,1.1,0.1,1.7c0,0.4,0,0.7,0,1c0,0.2,0,0.3,0,0.5v1.5c0,0.2,0,0.3,0,0.5c0,0,0.5,0,0.5,0
			C146.2,30.1,146.3,30.1,146.5,30.1L146.5,30.1z"/>
		<path class="start2" d="M155.3,36.3v-7.4c0-0.5,0-1,0-1.5c0-0.2,0-0.5-0.2-0.6c-0.2-0.1-0.4,0-0.6-0.1c-0.2,0-0.4,0-0.6,0h-1.1
			c-0.5,0-1.1,0-1.6,0c-0.2,0-0.4,0-0.7,0c-0.3,0-0.7,0-1-0.2c-0.4-0.3-0.6-0.8-0.6-1.3c0-0.3,0-0.6,0.2-0.9
			c0.1-0.2,0.2-0.3,0.3-0.4c0.2-0.2,0.5-0.3,0.7-0.3c0.7-0.2,1.4-0.1,2.1-0.1h4.1c0.4,0,0.9,0.1,1.3,0.2c0.2,0.1,0.5,0.3,0.7,0.5
			c0.3,0.4,0.3,0.9,0.3,1.4c0.1,0.9,0,1.7,0,2.6v7.6c0,0.1,0,2,0,3c0,0.6-0.2,1.4-1,1.7c-0.3,0.1-0.6,0.2-0.8,0.2
			c-0.4,0-0.9-0.2-1-0.5c-0.2-0.5-0.4-1-0.4-1.7v-1C155.3,37.1,155.3,36.7,155.3,36.3z M166.1,40.8c0,0.1-0.1,0.2-0.1,0.3
			c-0.1,0.2-0.2,0.4-0.4,0.5c-0.3,0.2-0.8,0.3-1.2,0.2c-0.2,0-0.4-0.1-0.6-0.3c-0.6-0.5-0.5-1.7-0.5-1.8V25.4c0-0.7,0-1.9,0.4-2.3
			c0.3-0.3,0.7-0.4,1.1-0.4c0.5,0,1,0.3,1.2,0.8c0.3,0.7,0.3,1.4,0.3,2.1v0.1c0.1,2.4,0,5,0,7.3v5.9c0,0.3,0,0.6,0,0.8
			C166.2,40.1,166.2,40.4,166.1,40.8z"/>
	</g>
	<g id="다각형_14_00000140708759696705997910000006824811398448999095_" transform="translate(29 8) rotate(90)">
		<path class="start3" d="M23-251.7c0.5-0.8,1.6-0.9,2.3-0.4c0.2,0.1,0.3,0.2,0.4,0.4l10.9,15.4c0.5,0.8,0.4,1.8-0.4,2.3
			c-0.3,0.2-0.6,0.3-1,0.3H13.4c-0.9,0-1.7-0.7-1.7-1.7c0-0.3,0.1-0.7,0.3-1L23-251.7z"/>
		<path class="start4" d="M24.3-250.7L24.3-250.7l-10.9,15.4l0,0h21.9c0,0,0,0,0,0L24.3-250.7 M24.3-252.4c0.5,0,1,0.2,1.4,0.7
			l10.9,15.4c0.8,1.1,0,2.6-1.4,2.6H13.4c-1.4,0-2.1-1.5-1.4-2.6L23-251.7C23.3-252.2,23.8-252.4,24.3-252.4z"/>
	</g>
</g>
</svg>
