<svg version="1.1" id="frame" xmlns="http://www.w3.org/2000/svg" xmlns:xlink="http://www.w3.org/1999/xlink" x="0px" y="0px" width="100%" height="100%" viewBox="0 0 800 500" style="enable-background:new 0 0 800 500;" xml:space="preserve">
<line x1="10" x2="10" y1="0" y2="500" fill="none" stroke="#898989" style="stroke-width: 0.5px; opacity:0.5"></line>
<line x1="20" x2="20" y1="0" y2="500" fill="none" stroke="#898989" style="stroke-width: 0.5px; opacity:0.5"></line>
<line x1="30" x2="30" y1="0" y2="500" fill="none" stroke="#898989" style="stroke-width: 0.5px; opacity:0.5"></line>
<line x1="40" x2="40" y1="0" y2="500" fill="none" stroke="#898989" style="stroke-width: 0.5px; opacity:0.5"></line>
<line x1="50" x2="50" y1="0" y2="500" fill="none" stroke="#898989" style="stroke-width: 0.5px; opacity:0.5"></line>
<line x1="60" x2="60" y1="0" y2="500" fill="none" stroke="#898989" style="stroke-width: 0.5px; opacity:0.5"></line>
<line x1="70" x2="70" y1="0" y2="500" fill="none" stroke="#898989" style="stroke-width: 0.5px; opacity:0.5"></line>
<line x1="80" x2="80" y1="0" y2="500" fill="none" stroke="#898989" style="stroke-width: 0.5px; opacity:0.5"></line>
<line x1="90" x2="90" y1="0" y2="500" fill="none" stroke="#898989" style="stroke-width: 0.5px; opacity:0.5"></line>
<line x1="110" x2="110" y1="0" y2="500" fill="none" stroke="#898989" style="stroke-width: 0.5px; opacity:0.5"></line>
<line x1="120" x2="120" y1="0" y2="500" fill="none" stroke="#898989" style="stroke-width: 0.5px; opacity:0.5"></line>
<line x1="130" x2="130" y1="0" y2="500" fill="none" stroke="#898989" style="stroke-width: 0.5px; opacity:0.5"></line>
<line x1="140" x2="140" y1="0" y2="500" fill="none" stroke="#898989" style="stroke-width: 0.5px; opacity:0.5"></line>
<line x1="150" x2="150" y1="0" y2="500" fill="none" stroke="#898989" style="stroke-width: 0.5px; opacity:0.5"></line>
<line x1="160" x2="160" y1="0" y2="500" fill="none" stroke="#898989" style="stroke-width: 0.5px; opacity:0.5"></line>
<line x1="170" x2="170" y1="0" y2="500" fill="none" stroke="#898989" style="stroke-width: 0.5px; opacity:0.5"></line>
<line x1="180" x2="180" y1="0" y2="500" fill="none" stroke="#898989" style="stroke-width: 0.5px; opacity:0.5"></line>
<line x1="190" x2="190" y1="0" y2="500" fill="none" stroke="#898989" style="stroke-width: 0.5px; opacity:0.5"></line>
<line x1="210" x2="210" y1="0" y2="500" fill="none" stroke="#898989" style="stroke-width: 0.5px; opacity:0.5"></line>
<line x1="220" x2="220" y1="0" y2="500" fill="none" stroke="#898989" style="stroke-width: 0.5px; opacity:0.5"></line>
<line x1="230" x2="230" y1="0" y2="500" fill="none" stroke="#898989" style="stroke-width: 0.5px; opacity:0.5"></line>
<line x1="240" x2="240" y1="0" y2="500" fill="none" stroke="#898989" style="stroke-width: 0.5px; opacity:0.5"></line>
<line x1="250" x2="250" y1="0" y2="500" fill="none" stroke="#898989" style="stroke-width: 0.5px; opacity:0.5"></line>
<line x1="260" x2="260" y1="0" y2="500" fill="none" stroke="#898989" style="stroke-width: 0.5px; opacity:0.5"></line>
<line x1="270" x2="270" y1="0" y2="500" fill="none" stroke="#898989" style="stroke-width: 0.5px; opacity:0.5"></line>
<line x1="280" x2="280" y1="0" y2="500" fill="none" stroke="#898989" style="stroke-width: 0.5px; opacity:0.5"></line>
<line x1="290" x2="290" y1="0" y2="500" fill="none" stroke="#898989" style="stroke-width: 0.5px; opacity:0.5"></line>
<line x1="310" x2="310" y1="0" y2="500" fill="none" stroke="#898989" style="stroke-width: 0.5px; opacity:0.5"></line>
<line x1="320" x2="320" y1="0" y2="500" fill="none" stroke="#898989" style="stroke-width: 0.5px; opacity:0.5"></line>
<line x1="330" x2="330" y1="0" y2="500" fill="none" stroke="#898989" style="stroke-width: 0.5px; opacity:0.5"></line>
<line x1="340" x2="340" y1="0" y2="500" fill="none" stroke="#898989" style="stroke-width: 0.5px; opacity:0.5"></line>
<line x1="350" x2="350" y1="0" y2="500" fill="none" stroke="#898989" style="stroke-width: 0.5px; opacity:0.5"></line>
<line x1="360" x2="360" y1="0" y2="500" fill="none" stroke="#898989" style="stroke-width: 0.5px; opacity:0.5"></line>
<line x1="370" x2="370" y1="0" y2="500" fill="none" stroke="#898989" style="stroke-width: 0.5px; opacity:0.5"></line>
<line x1="380" x2="380" y1="0" y2="500" fill="none" stroke="#898989" style="stroke-width: 0.5px; opacity:0.5"></line>
<line x1="390" x2="390" y1="0" y2="500" fill="none" stroke="#898989" style="stroke-width: 0.5px; opacity:0.5"></line>
<line x1="410" x2="410" y1="0" y2="500" fill="none" stroke="#898989" style="stroke-width: 0.5px; opacity:0.5"></line>
<line x1="420" x2="420" y1="0" y2="500" fill="none" stroke="#898989" style="stroke-width: 0.5px; opacity:0.5"></line>
<line x1="430" x2="430" y1="0" y2="500" fill="none" stroke="#898989" style="stroke-width: 0.5px; opacity:0.5"></line>
<line x1="440" x2="440" y1="0" y2="500" fill="none" stroke="#898989" style="stroke-width: 0.5px; opacity:0.5"></line>
<line x1="450" x2="450" y1="0" y2="500" fill="none" stroke="#898989" style="stroke-width: 0.5px; opacity:0.5"></line>
<line x1="460" x2="460" y1="0" y2="500" fill="none" stroke="#898989" style="stroke-width: 0.5px; opacity:0.5"></line>
<line x1="470" x2="470" y1="0" y2="500" fill="none" stroke="#898989" style="stroke-width: 0.5px; opacity:0.5"></line>
<line x1="480" x2="480" y1="0" y2="500" fill="none" stroke="#898989" style="stroke-width: 0.5px; opacity:0.5"></line>
<line x1="490" x2="490" y1="0" y2="500" fill="none" stroke="#898989" style="stroke-width: 0.5px; opacity:0.5"></line>
<line x1="510" x2="510" y1="0" y2="500" fill="none" stroke="#898989" style="stroke-width: 0.5px; opacity:0.5"></line>
<line x1="520" x2="520" y1="0" y2="500" fill="none" stroke="#898989" style="stroke-width: 0.5px; opacity:0.5"></line>
<line x1="530" x2="530" y1="0" y2="500" fill="none" stroke="#898989" style="stroke-width: 0.5px; opacity:0.5"></line>
<line x1="540" x2="540" y1="0" y2="500" fill="none" stroke="#898989" style="stroke-width: 0.5px; opacity:0.5"></line>
<line x1="550" x2="550" y1="0" y2="500" fill="none" stroke="#898989" style="stroke-width: 0.5px; opacity:0.5"></line>
<line x1="560" x2="560" y1="0" y2="500" fill="none" stroke="#898989" style="stroke-width: 0.5px; opacity:0.5"></line>
<line x1="570" x2="570" y1="0" y2="500" fill="none" stroke="#898989" style="stroke-width: 0.5px; opacity:0.5"></line>
<line x1="580" x2="580" y1="0" y2="500" fill="none" stroke="#898989" style="stroke-width: 0.5px; opacity:0.5"></line>
<line x1="590" x2="590" y1="0" y2="500" fill="none" stroke="#898989" style="stroke-width: 0.5px; opacity:0.5"></line>
<line x1="610" x2="610" y1="0" y2="500" fill="none" stroke="#898989" style="stroke-width: 0.5px; opacity:0.5"></line>
<line x1="620" x2="620" y1="0" y2="500" fill="none" stroke="#898989" style="stroke-width: 0.5px; opacity:0.5"></line>
<line x1="630" x2="630" y1="0" y2="500" fill="none" stroke="#898989" style="stroke-width: 0.5px; opacity:0.5"></line>
<line x1="640" x2="640" y1="0" y2="500" fill="none" stroke="#898989" style="stroke-width: 0.5px; opacity:0.5"></line>
<line x1="650" x2="650" y1="0" y2="500" fill="none" stroke="#898989" style="stroke-width: 0.5px; opacity:0.5"></line>
<line x1="660" x2="660" y1="0" y2="500" fill="none" stroke="#898989" style="stroke-width: 0.5px; opacity:0.5"></line>
<line x1="670" x2="670" y1="0" y2="500" fill="none" stroke="#898989" style="stroke-width: 0.5px; opacity:0.5"></line>
<line x1="680" x2="680" y1="0" y2="500" fill="none" stroke="#898989" style="stroke-width: 0.5px; opacity:0.5"></line>
<line x1="690" x2="690" y1="0" y2="500" fill="none" stroke="#898989" style="stroke-width: 0.5px; opacity:0.5"></line>
<line x1="710" x2="710" y1="0" y2="500" fill="none" stroke="#898989" style="stroke-width: 0.5px; opacity:0.5"></line>
<line x1="720" x2="720" y1="0" y2="500" fill="none" stroke="#898989" style="stroke-width: 0.5px; opacity:0.5"></line>
<line x1="730" x2="730" y1="0" y2="500" fill="none" stroke="#898989" style="stroke-width: 0.5px; opacity:0.5"></line>
<line x1="740" x2="740" y1="0" y2="500" fill="none" stroke="#898989" style="stroke-width: 0.5px; opacity:0.5"></line>
<line x1="750" x2="750" y1="0" y2="500" fill="none" stroke="#898989" style="stroke-width: 0.5px; opacity:0.5"></line>
<line x1="760" x2="760" y1="0" y2="500" fill="none" stroke="#898989" style="stroke-width: 0.5px; opacity:0.5"></line>
<line x1="770" x2="770" y1="0" y2="500" fill="none" stroke="#898989" style="stroke-width: 0.5px; opacity:0.5"></line>
<line x1="780" x2="780" y1="0" y2="500" fill="none" stroke="#898989" style="stroke-width: 0.5px; opacity:0.5"></line>
<line x1="790" x2="790" y1="0" y2="500" fill="none" stroke="#898989" style="stroke-width: 0.5px; opacity:0.5"></line>
<line x1="0" x2="800" y1="10" y2="10" fill="none" stroke="#898989" style="stroke-width: 0.5px; opacity:0.5"></line>
<line x1="0" x2="800" y1="20" y2="20" fill="none" stroke="#898989" style="stroke-width: 0.5px; opacity:0.5"></line>
<line x1="0" x2="800" y1="30" y2="30" fill="none" stroke="#898989" style="stroke-width: 0.5px; opacity:0.5"></line>
<line x1="0" x2="800" y1="40" y2="40" fill="none" stroke="#898989" style="stroke-width: 0.5px; opacity:0.5"></line>
<line x1="0" x2="800" y1="50" y2="50" fill="none" stroke="#898989" style="stroke-width: 0.5px; opacity:0.5"></line>
<line x1="0" x2="800" y1="60" y2="60" fill="none" stroke="#898989" style="stroke-width: 0.5px; opacity:0.5"></line>
<line x1="0" x2="800" y1="70" y2="70" fill="none" stroke="#898989" style="stroke-width: 0.5px; opacity:0.5"></line>
<line x1="0" x2="800" y1="80" y2="80" fill="none" stroke="#898989" style="stroke-width: 0.5px; opacity:0.5"></line>
<line x1="0" x2="800" y1="90" y2="90" fill="none" stroke="#898989" style="stroke-width: 0.5px; opacity:0.5"></line>
<line x1="0" x2="800" y1="110" y2="110" fill="none" stroke="#898989" style="stroke-width: 0.5px; opacity:0.5"></line>
<line x1="0" x2="800" y1="120" y2="120" fill="none" stroke="#898989" style="stroke-width: 0.5px; opacity:0.5"></line>
<line x1="0" x2="800" y1="130" y2="130" fill="none" stroke="#898989" style="stroke-width: 0.5px; opacity:0.5"></line>
<line x1="0" x2="800" y1="140" y2="140" fill="none" stroke="#898989" style="stroke-width: 0.5px; opacity:0.5"></line>
<line x1="0" x2="800" y1="150" y2="150" fill="none" stroke="#898989" style="stroke-width: 0.5px; opacity:0.5"></line>
<line x1="0" x2="800" y1="160" y2="160" fill="none" stroke="#898989" style="stroke-width: 0.5px; opacity:0.5"></line>
<line x1="0" x2="800" y1="170" y2="170" fill="none" stroke="#898989" style="stroke-width: 0.5px; opacity:0.5"></line>
<line x1="0" x2="800" y1="180" y2="180" fill="none" stroke="#898989" style="stroke-width: 0.5px; opacity:0.5"></line>
<line x1="0" x2="800" y1="190" y2="190" fill="none" stroke="#898989" style="stroke-width: 0.5px; opacity:0.5"></line>
<line x1="0" x2="800" y1="210" y2="210" fill="none" stroke="#898989" style="stroke-width: 0.5px; opacity:0.5"></line>
<line x1="0" x2="800" y1="220" y2="220" fill="none" stroke="#898989" style="stroke-width: 0.5px; opacity:0.5"></line>
<line x1="0" x2="800" y1="230" y2="230" fill="none" stroke="#898989" style="stroke-width: 0.5px; opacity:0.5"></line>
<line x1="0" x2="800" y1="240" y2="240" fill="none" stroke="#898989" style="stroke-width: 0.5px; opacity:0.5"></line>
<line x1="0" x2="800" y1="250" y2="250" fill="none" stroke="#898989" style="stroke-width: 0.5px; opacity:0.5"></line>
<line x1="0" x2="800" y1="260" y2="260" fill="none" stroke="#898989" style="stroke-width: 0.5px; opacity:0.5"></line>
<line x1="0" x2="800" y1="270" y2="270" fill="none" stroke="#898989" style="stroke-width: 0.5px; opacity:0.5"></line>
<line x1="0" x2="800" y1="280" y2="280" fill="none" stroke="#898989" style="stroke-width: 0.5px; opacity:0.5"></line>
<line x1="0" x2="800" y1="290" y2="290" fill="none" stroke="#898989" style="stroke-width: 0.5px; opacity:0.5"></line>
<line x1="0" x2="800" y1="310" y2="310" fill="none" stroke="#898989" style="stroke-width: 0.5px; opacity:0.5"></line>
<line x1="0" x2="800" y1="320" y2="320" fill="none" stroke="#898989" style="stroke-width: 0.5px; opacity:0.5"></line>
<line x1="0" x2="800" y1="330" y2="330" fill="none" stroke="#898989" style="stroke-width: 0.5px; opacity:0.5"></line>
<line x1="0" x2="800" y1="340" y2="340" fill="none" stroke="#898989" style="stroke-width: 0.5px; opacity:0.5"></line>
<line x1="0" x2="800" y1="350" y2="350" fill="none" stroke="#898989" style="stroke-width: 0.5px; opacity:0.5"></line>
<line x1="0" x2="800" y1="360" y2="360" fill="none" stroke="#898989" style="stroke-width: 0.5px; opacity:0.5"></line>
<line x1="0" x2="800" y1="370" y2="370" fill="none" stroke="#898989" style="stroke-width: 0.5px; opacity:0.5"></line>
<line x1="0" x2="800" y1="380" y2="380" fill="none" stroke="#898989" style="stroke-width: 0.5px; opacity:0.5"></line>
<line x1="0" x2="800" y1="390" y2="390" fill="none" stroke="#898989" style="stroke-width: 0.5px; opacity:0.5"></line>
<line x1="0" x2="800" y1="410" y2="410" fill="none" stroke="#898989" style="stroke-width: 0.5px; opacity:0.5"></line>
<line x1="0" x2="800" y1="420" y2="420" fill="none" stroke="#898989" style="stroke-width: 0.5px; opacity:0.5"></line>
<line x1="0" x2="800" y1="430" y2="430" fill="none" stroke="#898989" style="stroke-width: 0.5px; opacity:0.5"></line>
<line x1="0" x2="800" y1="440" y2="440" fill="none" stroke="#898989" style="stroke-width: 0.5px; opacity:0.5"></line>
<line x1="0" x2="800" y1="450" y2="450" fill="none" stroke="#898989" style="stroke-width: 0.5px; opacity:0.5"></line>
<line x1="0" x2="800" y1="460" y2="460" fill="none" stroke="#898989" style="stroke-width: 0.5px; opacity:0.5"></line>
<line x1="0" x2="800" y1="470" y2="470" fill="none" stroke="#898989" style="stroke-width: 0.5px; opacity:0.5"></line>
<line x1="0" x2="800" y1="480" y2="480" fill="none" stroke="#898989" style="stroke-width: 0.5px; opacity:0.5"></line>
<line x1="0" x2="800" y1="490" y2="490" fill="none" stroke="#898989" style="stroke-width: 0.5px; opacity:0.5"></line>
<line x1="0" x2="0" y1="0" y2="500" fill="none" stroke="#898989" style="stroke-width: 1px; opacity:0.8"></line>
<line x1="100" x2="100" y1="0" y2="500" fill="none" stroke="#898989" style="stroke-width: 1px; opacity:0.8"></line>
<line x1="200" x2="200" y1="0" y2="500" fill="none" stroke="#898989" style="stroke-width: 1px; opacity:0.8"></line>
<line x1="300" x2="300" y1="0" y2="500" fill="none" stroke="#898989" style="stroke-width: 1px; opacity:0.8"></line>
<line x1="400" x2="400" y1="0" y2="500" fill="none" stroke="#898989" style="stroke-width: 1px; opacity:0.8"></line>
<line x1="500" x2="500" y1="0" y2="500" fill="none" stroke="#898989" style="stroke-width: 1px; opacity:0.8"></line>
<line x1="600" x2="600" y1="0" y2="500" fill="none" stroke="#898989" style="stroke-width: 1px; opacity:0.8"></line>
<line x1="700" x2="700" y1="0" y2="500" fill="none" stroke="#898989" style="stroke-width: 1px; opacity:0.8"></line>
<line x1="800" x2="800" y1="0" y2="500" fill="none" stroke="#898989" style="stroke-width: 1px; opacity:0.8"></line>
<line x1="0" x2="800" y1="0" y2="0" fill="none" stroke="#898989" style="stroke-width: 1px; opacity:0.8"></line>
<line x1="0" x2="800" y1="100" y2="100" fill="none" stroke="#898989" style="stroke-width: 1px; opacity:0.8"></line>
<line x1="0" x2="800" y1="200" y2="200" fill="none" stroke="#898989" style="stroke-width: 1px; opacity:0.8"></line>
<line x1="0" x2="800" y1="300" y2="300" fill="none" stroke="#898989" style="stroke-width: 1px; opacity:0.8"></line>
<line x1="0" x2="800" y1="400" y2="400" fill="none" stroke="#898989" style="stroke-width: 1px; opacity:0.8"></line>
<line x1="0" x2="800" y1="500" y2="500" fill="none" stroke="#898989" style="stroke-width: 1px; opacity:0.8"></line>
<rect x="0" y="0" width="800" height="500" fill="none" stroke="#898989" style="stroke-width: 2px;"></rect>
</svg>
